<?xml version="1.0" encoding="UTF-8" standalone="no"?>
<!-- Created with Inkscape (http://www.inkscape.org/) -->

<svg
   width="24"
   height="24"
   viewBox="0 0 24 24"
   version="1.1"
   id="svg1"
   xmlns="http://www.w3.org/2000/svg"
   xmlns:svg="http://www.w3.org/2000/svg">
  <defs
     id="defs1" />
  <g
     id="layer1"
     style="display:inline">
    <g
       id="g2">
      <path
         style="opacity:1;fill:#008000;stroke:none;stroke-width:0.5;stroke-linecap:round;stroke-linejoin:round;stroke-dasharray:none;paint-order:normal"
         d="M 19.5,1 C 20,1 20,1.5 20,1.5 V 19 19 c 0,0.5 -0.5,0.5 -0.5,0.5 h -13 v 0 c -1,0 -1,1 -1,1 v 0 c 0,1 1,1 1,1 H 19 V 21 21 c 0,-0.5 0.5,-0.5 0.5,-0.5 v 0 C 20,20.5 20,21 20,21 v 1.5 0 C 20,23 19.5,23 19.5,23 H 7 v 0 C 4,23 4,20 4,20 V 4 4 C 4,1 7,1 7,1 Z"
         id="path1" />
      <path
         id="path2"
         style="opacity:1;fill:#ffffff;stroke:none;stroke-width:1;stroke-linecap:round;stroke-linejoin:round;stroke-dasharray:none;paint-order:stroke fill markers"
         d="M 8,4.5 C 7.5000005,4.5 7.5,5 7.5,5 V 7.3125 7.5 C 7.5,7.9999995 8,8 8,8 h 4 4 c 0,0 0.5,-5e-7 0.5,-0.5 V 7.3125 5 c 0,0 0,-0.5 -0.5,-0.5 h -4 z" />
      <g
         id="g45"
         style="display:inline;stroke:#000000;stroke-width:4.39999"
         transform="matrix(0.22727279,0,0,0.22727279,9.2727266,10.272726)">
        <path
           id="path121"
           style="display:inline;opacity:1;fill:#006400;stroke:none;stroke-width:4.39999;stroke-linecap:round;stroke-linejoin:round;paint-order:stroke fill markers"
           d="m 11,10.5 v 0 L 10.508037,10.4983 C 11.008037,11.498304 11,12 11,12 l 0.460926,2.554688 H 12 v -1.109375 c 0,0 -0.227198,-1.275015 -1,-2.945313 z m 1,2.945317 v 1.109375 h 0.542969 l -0.0039,-0.554688 C 12.6488,13.320597 12.991948,12 13.5,11.5 c -0.31282,-0.01172 -0.5,0 -0.5,0 0,-0.108394 0,0 0,0 -1,1.5 -1,1.945317 -1,1.945317 z" />
        <path
           d="m 1,0.99999995 v 0 C 1,9 8,10.489633 10.508037,10.4983 L 11,10.5 C 10,8 5,4 5,4 9,5 10.5,8.5 11.5,10.5 11.5,2 3,0.99999995 1,0.99999995 Z"
           style="display:inline;opacity:1;fill:#4caf50;stroke:none;stroke-width:4.39998;stroke-linecap:round;stroke-linejoin:round;paint-order:stroke fill markers"
           id="path120" />
        <path
           d="m 13,11 c 0.5,-1 3,-3.5 6.5,-4 0,0 -4.5,2 -6.5,4.5 h 0.5 c 0,0 9.5,0 9.5,-6.5 0,0 -9.496107,-7e-6 -10,6 z"
           style="display:inline;opacity:1;fill:#4caf50;stroke:none;stroke-width:4.39996;stroke-linecap:round;stroke-linejoin:round;paint-order:stroke fill markers"
           id="path124" />
        <path
           d="M 12,13.999953 A 6.25,6.25 0 0 0 6.1875,17.998 6.2499995,6.2499995 0 0 0 6.1836,18.0039 5,5 0 0 0 6,18 5,5 0 0 0 1,23 h 21.999999 a 6,6 0 0 0 -5.654297,-5.988281 6.2499995,6.2499995 0 0 0 -0.0039,-0.0059 A 6.25,6.25 0 0 0 12,14 Z"
           style="display:inline;fill:#8b4513;stroke:none;stroke-width:4.39999;stroke-linecap:round;stroke-linejoin:round;paint-order:stroke fill markers"
           id="path5" />
      </g>
    </g>
  </g>
</svg>
