<?xml version="1.0" encoding="UTF-8" standalone="no"?>
<!-- Created with Inkscape (http://www.inkscape.org/) -->

<svg
   width="22"
   height="22"
   viewBox="0 0 22 22"
   version="1.1"
   id="svg1"
   xml:space="preserve"
   xmlns="http://www.w3.org/2000/svg"
   xmlns:svg="http://www.w3.org/2000/svg"><defs
     id="defs1" /><g
     id="layer1"
     style="display:inline"
     transform="translate(-1,-1)"><g
       id="g49"
       style="display:inline;opacity:1;fill:#000000;stroke:none;stroke-width:0.999997"><path
         id="path24"
         style="opacity:1;fill:#006400;stroke:none;stroke-width:0.999997;stroke-linecap:round;stroke-linejoin:round;stroke-dasharray:none;paint-order:stroke fill markers"
         d="M 15.498047,1 A 3.4996338,3.5 0 0 0 13.148438,1.9140625 3.4996338,3.5 0 0 0 11.498047,1.5 3.4996338,3.5 0 0 0 8.6035156,3.0429688 a 3.4996338,3.5 0 0 0 -0.00195,0 A 6.9857183,5.0055146 0 0 0 2.5273438,8.0058594 6.9857183,5.0055146 0 0 0 2.6855469,9.0117188 3.4996338,3.5 0 0 0 1,12 3.4996338,3.5 0 0 0 4.5,15.5 3.4996338,3.5 0 0 0 7.8828125,12.865234 6.9857183,5.0055146 0 0 0 9.5117188,13.011719 6.9857183,5.0055146 0 0 0 11.800781,12.722656 3.4996338,3.5 0 0 0 14.498047,14 3.4996338,3.5 0 0 0 16.171875,13.564453 3.4996338,3.5 0 0 0 19.5,16 3.4996338,3.5 0 0 0 23,12.5 3.4996338,3.5 0 0 0 21.941406,9.9941406 3.4996338,3.5 0 0 0 22.998047,7.5 3.4996338,3.5 0 0 0 19.498047,4 3.4996338,3.5 0 0 0 18.966797,4.0429688 3.4996338,3.5 0 0 0 15.498047,1 Z" /><path
         d="m 14.369141,14.5 c -0.804706,-0.02412 -1.593725,-0.296112 -2.273438,-0.802734 -0.172773,-0.128777 -0.33435,-0.272385 -0.482422,-0.427735 -0.510354,0.111201 -1.021729,0.18748 -1.46289,0.205078 -0.01345,5.37e-4 -0.01962,0.0014 -0.0332,0.002 C 10.226025,14.511997 10.327102,16 10,16 L 7.9765625,13.976563 C 7.6276471,14.576923 7.1328702,15.066285 6.5546875,15.412109 7.6331553,16.288917 9.8826822,18.555855 9.5,22 c 0,0.999988 2.498047,1 2.498047,1 C 14.499966,23 14.5,22 14.5,22 c 0,0 10e-7,-3.000012 0.5,-4 l 1,-1.5 0.826172,-1.033203 c -0.34833,-0.316742 -0.644834,-0.695986 -0.871094,-1.130859 L 14.5,15.5 c 0,0 -0.0694,-0.462718 -0.130859,-1 z"
         style="display:inline;opacity:1;fill:#9acd32;stroke:none;stroke-width:1.01078;stroke-linecap:round;stroke-linejoin:round;stroke-dasharray:none;paint-order:stroke fill markers"
         id="path21" /></g></g></svg>
