<?xml version="1.0" encoding="UTF-8" standalone="no"?>
<!-- Created with Inkscape (http://www.inkscape.org/) -->

<svg
   width="21.999998"
   height="21.999998"
   viewBox="0 0 21.999998 21.999998"
   version="1.1"
   id="svg1"
   inkscape:version="1.3.2 (091e20e, 2023-11-25, custom)"
   sodipodi:docname="cabbage_color.svg"
   xml:space="preserve"
   inkscape:export-filename="..\Git\flutter_app\assets\svgs\cabbage_color.svg"
   inkscape:export-xdpi="96"
   inkscape:export-ydpi="96"
   xmlns:inkscape="http://www.inkscape.org/namespaces/inkscape"
   xmlns:sodipodi="http://sodipodi.sourceforge.net/DTD/sodipodi-0.dtd"
   xmlns="http://www.w3.org/2000/svg"
   xmlns:svg="http://www.w3.org/2000/svg"><sodipodi:namedview
     id="namedview1"
     pagecolor="#ffffff"
     bordercolor="#000000"
     borderopacity="0.25"
     inkscape:showpageshadow="2"
     inkscape:pageopacity="0.0"
     inkscape:pagecheckerboard="true"
     inkscape:deskcolor="#d1d1d1"
     inkscape:document-units="px"
     showgrid="true"
     inkscape:zoom="16"
     inkscape:cx="12.84375"
     inkscape:cy="9.84375"
     inkscape:window-width="1920"
     inkscape:window-height="1009"
     inkscape:window-x="1912"
     inkscape:window-y="-8"
     inkscape:window-maximized="1"
     inkscape:current-layer="layer1"
     showguides="true"
     inkscape:lockguides="false"><inkscape:grid
       id="grid6"
       units="px"
       originx="-0.99999988"
       originy="-0.99999988"
       spacingx="1"
       spacingy="1"
       empcolor="#0099e5"
       empopacity="0.30196078"
       color="#0099e5"
       opacity="0.14901961"
       empspacing="12"
       dotted="false"
       gridanglex="30"
       gridanglez="30"
       visible="true" /><inkscape:grid
       id="grid7"
       units="px"
       originx="-0.49999988"
       originy="-0.49999988"
       spacingx="23"
       spacingy="23"
       empcolor="#e50000"
       empopacity="0.30196078"
       color="#e50000"
       opacity="0.14901961"
       empspacing="1"
       dotted="false"
       gridanglex="30"
       gridanglez="30"
       visible="true" /><inkscape:grid
       id="grid8"
       units="px"
       originx="-0.99999988"
       originy="-0.99999988"
       spacingx="0.5"
       spacingy="0.5"
       empcolor="#0099e5"
       empopacity="0.14901961"
       color="#0099e5"
       opacity="0.14901961"
       empspacing="0"
       dotted="false"
       gridanglex="30"
       gridanglez="30"
       visible="true" /><sodipodi:guide
       position="5.0000001,9.9999999"
       orientation="0.25,0"
       id="guide13"
       inkscape:locked="false" /><sodipodi:guide
       position="5.0000001,9.7499999"
       orientation="0,0.25"
       id="guide14"
       inkscape:locked="false" /><sodipodi:guide
       position="5.2500001,9.7499999"
       orientation="-0.25,0"
       id="guide15"
       inkscape:locked="false" /><sodipodi:guide
       position="5.2500001,9.9999999"
       orientation="0,-0.25"
       id="guide16"
       inkscape:locked="false" /><sodipodi:guide
       position="5.0000001,11.25"
       orientation="0.25,0"
       id="guide17"
       inkscape:locked="false" /><sodipodi:guide
       position="5.0000001,11"
       orientation="0,0.25"
       id="guide18"
       inkscape:locked="false" /><sodipodi:guide
       position="5.2500001,11"
       orientation="-0.25,0"
       id="guide19"
       inkscape:locked="false" /><sodipodi:guide
       position="5.2500001,11.25"
       orientation="0,-0.25"
       id="guide20"
       inkscape:locked="false" /><sodipodi:guide
       position="5.0000001,12.25"
       orientation="0.25,0"
       id="guide21"
       inkscape:locked="false" /><sodipodi:guide
       position="8.7337669,12"
       orientation="0,0.25"
       id="guide22"
       inkscape:locked="false" /><sodipodi:guide
       position="5.2500001,12"
       orientation="-0.25,0"
       id="guide23"
       inkscape:locked="false" /><sodipodi:guide
       position="5.2500001,12.25"
       orientation="0,-0.25"
       id="guide24"
       inkscape:locked="false" /><sodipodi:guide
       position="5.0000001,15.25"
       orientation="0.25,0"
       id="guide25"
       inkscape:locked="false" /><sodipodi:guide
       position="5.0000001,15"
       orientation="0,0.25"
       id="guide26"
       inkscape:locked="false" /><sodipodi:guide
       position="5.2500001,15"
       orientation="-0.25,0"
       id="guide27"
       inkscape:locked="false" /><sodipodi:guide
       position="5.2500001,15.25"
       orientation="0,-0.25"
       id="guide28"
       inkscape:locked="false" /><sodipodi:guide
       position="5.0000001,16.25"
       orientation="0.25,0"
       id="guide29"
       inkscape:locked="false" /><sodipodi:guide
       position="5.0000001,16"
       orientation="0,0.25"
       id="guide30"
       inkscape:locked="false" /><sodipodi:guide
       position="5.2500001,16"
       orientation="-0.25,0"
       id="guide31"
       inkscape:locked="false" /><sodipodi:guide
       position="5.2500001,16.25"
       orientation="0,-0.25"
       id="guide32"
       inkscape:locked="false" /><sodipodi:guide
       position="6.5000001,16.75"
       orientation="0.25,0"
       id="guide33"
       inkscape:locked="false" /><sodipodi:guide
       position="6.5000001,16.5"
       orientation="0,0.25"
       id="guide34"
       inkscape:locked="false" /><sodipodi:guide
       position="6.7500001,16.5"
       orientation="-0.25,0"
       id="guide35"
       inkscape:locked="false" /><sodipodi:guide
       position="6.7500001,16.75"
       orientation="0,-0.25"
       id="guide36"
       inkscape:locked="false" /><sodipodi:guide
       position="14.25,23"
       orientation="0.25,0"
       id="guide37"
       inkscape:locked="false" /><sodipodi:guide
       position="14.25,22.75"
       orientation="0,0.25"
       id="guide38"
       inkscape:locked="false" /><sodipodi:guide
       position="14.5,22.75"
       orientation="-0.25,0"
       id="guide39"
       inkscape:locked="false" /><sodipodi:guide
       position="14.5,23"
       orientation="0,-0.25"
       id="guide40"
       inkscape:locked="false" /></sodipodi:namedview><defs
     id="defs1" /><g
     inkscape:label="Layer 1"
     inkscape:groupmode="layer"
     id="layer1"
     style="display:inline"
     transform="translate(-0.99999988,-0.99999988)"><g
       id="g12"
       inkscape:label="cabbage"
       transform="matrix(1.047619,0,0,1.047619,-0.57142863,-0.57142863)"
       style="stroke:none;stroke-width:0.954545;stroke-linecap:round;stroke-linejoin:round;stroke-dasharray:none;paint-order:stroke fill markers"><path
         d="m 17.011719,2.7753906 c 0.02555,0.5191444 0.04557,0.701736 0.109375,1.03125 0.09828,0.5074999 0.270612,0.832261 0.666015,1.2519531 0.285057,0.3025663 0.398055,0.4596016 0.546875,0.7578125 0.245121,0.4911808 0.36398,1.0634731 0.363282,1.7480469 -0.0012,1.1331086 -0.355791,2.3030522 -0.996094,3.2890629 -0.07829,0.120574 -0.140286,0.241195 -0.138672,0.267578 0.0016,0.02639 0.05248,0.278839 0.113281,0.5625 0.0608,0.28366 0.146327,0.727957 0.189453,0.986328 0.22106,1.324438 0.188712,1.76036 -0.177734,2.464844 -0.272694,0.524251 -0.641005,0.98119 -1.587891,1.966796 l -0.585937,0.609375 -0.01953,0.517579 c -0.04443,1.168579 -0.334179,2.14675 -0.882813,2.990234 -0.300657,0.46224 -0.668443,0.859454 -1.0625,1.162109 A 10.5,10.5 0 0 0 22.5,12 10.5,10.5 0 0 0 17.011719,2.7753906 Z"
         style="display:inline;opacity:1;fill:#9acd32;stroke:none;stroke-width:0.954545;stroke-linecap:round;stroke-linejoin:round;stroke-dasharray:none;paint-order:stroke fill markers"
         id="path42" /><path
         d="M 12,1.5 C 6.2694083,1.5 1.5,6.5 1.5,12 c 0,6 4.75,10.5 10.5,10.5 1,0 3,-1.5 3,-4.5 V 17.5 C 16.5,16 17.5,15 17.5,14 17.5,13 17,11 17,11 c 1.5,-2 1.5,-4.5 0.5,-5.5 -0.49706,-0.4970602 -1,-1 -1,-3 C 15.25,2 14,1.5 12,1.5 Z"
         style="display:inline;opacity:1;fill:#9acd32;stroke:none;stroke-width:0.954545;stroke-linecap:round;stroke-linejoin:round;stroke-dasharray:none;paint-order:stroke fill markers"
         id="path3"
         sodipodi:nodetypes="cscscssscc" /><path
         id="path2"
         style="display:inline;opacity:1;fill:#eee8aa;stroke:none;stroke-width:0.954545;stroke-linecap:round;stroke-linejoin:round;stroke-dasharray:none;paint-order:stroke fill markers"
         d="M 12,4 C 8.5,4 7,6.5 6.25,8.75 L 5,8 4.5,8.5 6.25,9.75 C 6,11 6,11 6,12.75 L 4,11.5 3.5,12 6,13.75 C 6,14.5 6.25,15.25 6.5,16 L 5,15 4.5,15.490234 6.5,17 c 1.25,5.5 5.5,5.5 5.5,5.5 v -1 C 10,21 9,20.5 7.75,17.5 10,13.75 14,14 14,14 V 13 C 10.5,13 8.5,15 7.5,16 7,15.5 7,14.5 7,14 8.5,11 14.5,10.5 14.5,10.5 V 9.75 C 11,9.75 8.5,11 7,12 v -0.5 c 0,-4 6.5,-4 6.5,-4 v -1 c -3.5,0 -5,1 -6,1.75 C 9,4.5 12,5 12,5 Z m 0,17.5 v -0.03125 z"
         sodipodi:nodetypes="cccccccccccccccccccccccccccccccc"
         inkscape:label="path2" /><path
         d="M 20.125,18.625 18,16.5 17.5,17 19.65625,19.15625 A 10.5,10.5 0 0 0 20.125,18.625 Z"
         style="opacity:1;fill:#eee8aa;stroke:none;stroke-width:0.954545;stroke-linecap:round;stroke-linejoin:round;stroke-dasharray:none;paint-order:stroke fill markers"
         id="path12" /><path
         d="M 21.478516,16.478516 19,14 l -0.5,0.5 2.455078,2.945312 a 10.5,10.5 0 0 0 0.523438,-0.966796 z"
         style="opacity:1;fill:#eee8aa;stroke:none;stroke-width:0.954545;stroke-linecap:round;stroke-linejoin:round;stroke-dasharray:none;paint-order:stroke fill markers"
         id="path10" /><path
         d="M 22.320312,13.820313 19,10.5 18.5,11 l 3.474609,4.21875 a 10.5,10.5 0 0 0 0.345703,-1.398437 z"
         style="opacity:1;fill:#eee8aa;stroke:none;stroke-width:0.954545;stroke-linecap:round;stroke-linejoin:round;stroke-dasharray:none;paint-order:stroke fill markers"
         id="path8" /></g></g></svg>
