<?xml version="1.0" encoding="UTF-8" standalone="no"?>
<!-- Created with Inkscape (http://www.inkscape.org/) -->

<svg
   width="8"
   height="22.000008"
   viewBox="0 0 8 22.000008"
   version="1.1"
   id="svg1"
   xmlns="http://www.w3.org/2000/svg"
   xmlns:svg="http://www.w3.org/2000/svg">
  <defs
     id="defs1" />
  <g
     id="layer1"
     style="display:inline"
     transform="translate(-8,-1)">
    <g
       id="g114"
       style="fill:#000000;stroke:none;stroke-width:1;stroke-linecap:round;stroke-linejoin:round;stroke-dasharray:none;paint-order:stroke fill markers">
      <g
         id="g113"
         style="display:inline;fill:#000000;stroke:none;stroke-width:1;stroke-linecap:round;stroke-linejoin:round;stroke-dasharray:none;paint-order:stroke fill markers">
        <path
           d="m 12,1 c 0,0 -1,5e-7 -1,0.5 l 0.203125,3.0371094 c 0.522282,-0.048213 1.070819,-0.047089 1.59375,0.00195 L 13,1.5 C 13,1.0000005 12,0.99999989 12,1 Z"
           style="display:inline;opacity:1;fill:#adff2f;stroke:none;stroke-width:1;stroke-linecap:round;stroke-linejoin:round;stroke-dasharray:none;paint-order:stroke fill markers"
           id="path99" />
        <path
           d="m 13.476563,1.2929687 c 0.01213,0.047623 0.02043,0.096012 0.02344,0.1425782 0.0033,0.051763 -0.02404,0.5003834 -0.09766,1.5996094 -0.05629,0.8406707 -0.104753,1.547303 -0.107422,1.5703124 0.02913,0.0047 0.05906,0.00866 0.08789,0.013672 L 14.480469,2.1523438 C 14.644764,1.69789 13.742187,1.3671875 13.742188,1.3671875 c 0,0 -0.113416,-0.04092 -0.265625,-0.074219 z"
           style="display:inline;opacity:1;fill:#9acd32;stroke:none;stroke-width:1;stroke-linecap:round;stroke-linejoin:round;stroke-dasharray:none;paint-order:stroke fill markers"
           id="path107" />
        <path
           d="M 10.705078,4.6015625 C 10.702368,4.5783418 10.653962,3.874785 10.597656,3.0351563 10.524946,1.9507512 10.496748,1.4855964 10.5,1.4355469 c 0.0032,-0.048719 0.01159,-0.095848 0.02344,-0.1425782 -0.152209,0.033298 -0.265625,0.074219 -0.265625,0.074219 -1e-6,0 -0.9025761,0.3307025 -0.7382817,0.7851563 l 1.0937497,2.4628906 c 0.03035,-0.00532 0.06109,-0.00871 0.0918,-0.013672 z"
           style="display:inline;opacity:1;fill:#9acd32;stroke:none;stroke-width:1;stroke-linecap:round;stroke-linejoin:round;stroke-dasharray:none;paint-order:stroke fill markers"
           id="path110" />
      </g>
      <g
         id="g116"
         style="display:inline;fill:#000000;stroke:none;stroke-width:1;stroke-linecap:round;stroke-linejoin:round;stroke-dasharray:none;paint-order:stroke fill markers">
        <path
           id="path4"
           style="display:inline;opacity:1;fill:#ff8c00;stroke:none;stroke-width:1;stroke-linecap:round;stroke-linejoin:round;stroke-dasharray:none;paint-order:stroke fill markers"
           d="M 11.998047,5 C 7.9991188,5.0008394 8,7.5 8,7.5 c 0,0.056896 0.0043,0.1286684 0.011719,0.2128906 1.258e-4,0.00152 -1.29e-4,0.00238 0,0.00391 0.0074,0.083417 0.01796,0.1784197 0.03125,0.2832031 0.08266,0.6533082 0.2815557,1.7256773 0.5488281,3.0000003 h 0.00781 c 0.06789,0.320996 0.1409299,0.655986 0.2167968,1 h -0.011719 c 0.3449572,1.572955 0.7677254,3.34092 1.1933594,5 h 0.00391 c 0.08635,0.337472 0.171716,0.67489 0.257813,1 h -0.002 c 0.118102,0.444398 0.234577,0.867518 0.34961,1.277344 0.118559,0.422385 0.233759,0.818983 0.345703,1.189453 0.0038,0.01249 0.008,0.02469 0.01172,0.03711 0.09704,0.320246 0.189734,0.618911 0.279297,0.888672 0.01252,0.03776 0.02671,0.08639 0.03906,0.123047 0.0023,0.0067 0.0056,0.01483 0.0078,0.02148 0.06569,0.194258 0.129226,0.367211 0.189453,0.527344 0.0277,0.07358 0.05563,0.147155 0.08203,0.212891 0.0074,0.01849 0.01417,0.03684 0.02148,0.05469 0.04082,0.0996 0.07991,0.190809 0.117188,0.269531 0.0329,0.06949 0.06583,0.129573 0.0957,0.181641 0.0242,0.04185 0.04824,0.08357 0.07031,0.113281 l 0.002,0.002 c 0.0219,0.02921 0.04283,0.0498 0.0625,0.06641 0.0069,0.0059 0.01289,0.01327 0.01953,0.01758 0.004,0.0025 0.0079,0.0059 0.01172,0.0078 0.01219,0.0063 0.024,0.0095 0.03516,0.0098 5.78e-4,1.6e-5 0.0033,0 0.0039,0 0.01116,-3e-4 0.02297,-0.0035 0.03516,-0.0098 0.0038,-0.0019 0.0077,-0.0053 0.01172,-0.0078 0.0066,-0.0043 0.01263,-0.01168 0.01953,-0.01758 0.01966,-0.01661 0.0406,-0.0372 0.0625,-0.06641 l 0.002,-0.002 c 0.02207,-0.02971 0.04611,-0.07143 0.07031,-0.113281 0.02988,-0.05207 0.06281,-0.112152 0.0957,-0.181641 0.03728,-0.07872 0.07637,-0.169932 0.117188,-0.269531 0.0073,-0.01785 0.01408,-0.0362 0.02148,-0.05469 0.0264,-0.06574 0.05433,-0.139311 0.08203,-0.212891 0.06022,-0.160133 0.123767,-0.333086 0.189453,-0.527344 0.0022,-0.0067 0.0055,-0.01478 0.0078,-0.02148 0.01235,-0.03666 0.02654,-0.08529 0.03906,-0.123047 0.08956,-0.269761 0.182254,-0.568426 0.279297,-0.888672 0.0037,-0.01242 0.0079,-0.02462 0.01172,-0.03711 0.111945,-0.37047 0.227144,-0.767068 0.345703,-1.189453 0.115014,-0.40983 0.231505,-0.83295 0.349609,-1.277348 h -0.002 c 0.0861,-0.32511 0.171462,-0.662528 0.257813,-1 h 0.0039 c 0.168247,-0.655809 0.333315,-1.328941 0.496094,-2 0.08138,-0.335506 0.161967,-0.667717 0.240234,-1 0.161219,-0.684456 0.316609,-1.359669 0.457031,-2 h -0.01172 c 0.07587,-0.344014 0.14891,-0.679004 0.216797,-1 h 0.0078 c 0.159077,-0.758459 0.290045,-1.4304045 0.390625,-2 0.06841,-0.3874087 0.124741,-0.7355317 0.158203,-1 0.01328,-0.1047837 0.02385,-0.1997867 0.03125,-0.2832031 1.29e-4,-0.00153 -1.27e-4,-0.00239 0,-0.00391 C 15.995781,7.6286755 16,7.5568955 16,7.5 16,7.5 16.00088,5.0008394 12.001953,5 Z m 1.261719,3.0644531 a 0.5,0.5 0 0 0 -0.01563,0.00781 0.5,0.5 0 0 1 0.01563,-0.00781 z m -0.1875,0.1796875 a 0.5,0.5 0 0 0 -0.0078,0.015625 0.5,0.5 0 0 1 0.0078,-0.015625 z m -0.0078,0.4960938 a 0.5,0.5 0 0 0 0.0078,0.015625 0.5,0.5 0 0 1 -0.0078,-0.015625 z m 0.179688,0.1875 a 0.5,0.5 0 0 0 0.01563,0.00781 0.5,0.5 0 0 1 -0.01563,-0.00781 z M 10.93556,11.740234 a 0.5,0.5 0 0 1 -0.0078,0.01563 0.5,0.5 0 0 0 0.0078,-0.01563 z m -0.179688,0.1875 a 0.5,0.5 0 0 1 -0.01563,0.0078 0.5,0.5 0 0 0 0.01563,-0.0078 z m 2.003907,2.136719 a 0.5,0.5 0 0 0 -0.01563,0.0078 0.5,0.5 0 0 1 0.01563,-0.0078 z m -0.1875,0.179688 a 0.5,0.5 0 0 0 -0.0078,0.01563 0.5,0.5 0 0 1 0.0078,-0.01563 z m -0.0078,0.496093 a 0.5,0.5 0 0 0 0.0078,0.01563 0.5,0.5 0 0 1 -0.0078,-0.01563 z m 0.179688,0.1875 a 0.5,0.5 0 0 0 0.01563,0.0078 0.5,0.5 0 0 1 -0.01563,-0.0078 z m -1.308594,2.814454 a 0.5,0.5 0 0 1 -0.0098,0.01562 0.5,0.5 0 0 0 0.0098,-0.01562 z m -0.177735,0.183593 a 0.5,0.5 0 0 1 -0.01562,0.0098 0.5,0.5 0 0 0 0.01562,-0.0098 z" />
      </g>
      <g
         id="g112"
         style="fill:#000000;stroke:none;stroke-width:1;stroke-linecap:round;stroke-linejoin:round;stroke-dasharray:none;paint-order:stroke fill markers">
        <path
           d="m 15.957422,8 h -1.957031 -0.474609 -0.02539 a 0.5,0.5 0 0 0 -0.500001,0.5 0.5,0.5 0 0 0 0.5,0.5 h 0.5 1.796875 0.002 c 0.06841,-0.3874091 0.124741,-0.7355314 0.158203,-1 z"
           style="display:inline;fill:#ffa500;stroke:none;stroke-width:1;stroke-linecap:round;stroke-linejoin:round;stroke-dasharray:none;paint-order:stroke fill markers"
           id="path6-4" />
        <path
           d="m 10.002344,17 c 0.08635,0.337472 0.171716,0.67489 0.257813,1 h 0.490234 0.25 a 0.5,0.5 0 0 0 0.5,-0.5 0.5,0.5 0 0 0 -0.5,-0.5 h -0.02539 -0.197265 -0.05274 z"
           style="display:inline;fill:#ffa500;stroke:none;stroke-width:1;stroke-linecap:round;stroke-linejoin:round;stroke-dasharray:none;paint-order:stroke fill markers"
           id="path10-4" />
        <path
           d="m 8.6,11 c 0.06789,0.320996 0.1409299,0.655986 0.2167969,1 h 1.5312501 0.152344 a 0.5,0.5 0 0 0 0.5,-0.5 0.5,0.5 0 0 0 -0.5,-0.5 h -0.02539 -0.126953 -0.02539 z"
           style="display:inline;fill:#ffa500;stroke:none;stroke-width:1;stroke-linecap:round;stroke-linejoin:round;stroke-dasharray:none;paint-order:stroke fill markers"
           id="path12-6" />
        <path
           d="m 14.738672,14 h -0.0078 -1.230469 -0.474609 -0.02539 a 0.5,0.5 0 0 0 -0.500001,0.5 0.5,0.5 0 0 0 0.5,0.5 h 0.5 0.996094 0.002 c 0.08138,-0.335506 0.161967,-0.667717 0.240234,-1 z"
           style="display:inline;fill:#ffa500;stroke:none;stroke-width:1;stroke-linecap:round;stroke-linejoin:round;stroke-dasharray:none;paint-order:stroke fill markers"
           id="path8-3" />
      </g>
    </g>
  </g>
</svg>
