<?xml version="1.0" encoding="UTF-8" standalone="no"?>
<!-- Created with Inkscape (http://www.inkscape.org/) -->

<svg
   width="22"
   height="14"
   viewBox="0 0 22 14"
   version="1.1"
   id="svg1"
   xml:space="preserve"
   xmlns="http://www.w3.org/2000/svg"
   xmlns:svg="http://www.w3.org/2000/svg"><defs
     id="defs1" /><g
     id="layer1"
     style="display:inline"
     transform="translate(-1,-5)"><g
       id="g1"
       style="stroke:none"><path
         style="opacity:1;fill:#d3d3d3;fill-opacity:1;stroke:none;stroke-width:1;stroke-linecap:round;stroke-linejoin:round;stroke-dasharray:none;paint-order:stroke fill markers"
         d="M 19,19 H 5 v 0 C 1,19 1,15 1,15 v 0 c 4e-7,-4.0082 4,-4 4,-4 v 0 C 5,5 11,5 11,5 v 0 c 3,0 4.5,2 4.5,2 V 7 C 19,7 19,11 19,11 v 0 c 4,0 4,4 4,4 v 0.0082 C 23,19 19,19 19,19 Z"
         id="path345" /><path
         style="opacity:1;fill:#a9a9a9;stroke:none;stroke-width:0.0999999;stroke-linecap:round;stroke-linejoin:round;stroke-dasharray:none;paint-order:stroke fill markers"
         d="m 20.108597,18.677563 c 0.503358,-0.585715 0.775827,-1.24663 0.872257,-2.115796 0.111159,-1.001916 -0.16824,-2.159755 -0.721792,-2.99114 -0.196888,-0.295707 -0.53175,-0.653172 -0.801572,-0.855676 -0.559044,-0.41957 -1.328732,-0.675265 -2.135739,-0.709505 l -0.311724,-0.01323 -0.01394,-0.223246 C 16.954016,11.094888 16.767428,10.392885 16.472767,9.800058 16.153789,9.1583091 15.740142,8.7071306 15.180699,8.390758 14.766833,8.1567116 14.16469,7.9991455 13.684141,7.9991455 H 13.534346 L 13.241619,7.7050969 C 12.243858,6.7028285 10.964444,6.1269277 9.4729104,6.0086923 8.8639159,5.9604168 8.1553253,6.0335402 7.4095682,6.2216203 c -0.1176597,0.029674 -0.2210745,0.053952 -0.2298105,0.053952 -0.027627,0 0.1701283,-0.1361654 0.4105916,-0.2827152 0.7903483,-0.481676 1.8316532,-0.8215949 2.8947187,-0.9449391 0.543562,-0.063068 1.221851,-0.025947 1.824165,0.099831 1.120135,0.2339122 2.21609,0.8351273 2.972487,1.6306367 l 0.208665,0.219454 0.308956,0.026627 c 0.525356,0.045276 0.918803,0.1520307 1.305561,0.3542385 1.068398,0.5585877 1.739583,1.7892085 1.876792,3.4411098 l 0.01496,0.180068 0.224393,0.0141 c 0.683579,0.04297 1.16947,0.154678 1.645506,0.378324 1.087991,0.511148 1.815561,1.569018 2.05706,2.990921 0.09106,0.536134 0.08113,1.047263 -0.03119,1.605324 -0.151478,0.752637 -0.439878,1.303668 -0.948456,1.812162 -0.386894,0.38683 -0.801339,0.651994 -1.338431,0.856335 -0.197853,0.07527 -0.576201,0.191762 -0.622838,0.191762 -0.0117,0 0.04496,-0.07706 0.125901,-0.171252 z"
         id="path74" /></g></g></svg>
