<?xml version="1.0" encoding="UTF-8" standalone="no"?>
<!-- Created with Inkscape (http://www.inkscape.org/) -->

<svg
   width="24"
   height="24"
   viewBox="0 0 24 24"
   version="1.1"
   id="svg1"
   xml:space="preserve"
   xmlns="http://www.w3.org/2000/svg"
   xmlns:svg="http://www.w3.org/2000/svg"><defs
     id="defs1" /><g
     id="layer1"
     style="display:inline"><g
       id="g2"
       style="display:inline;stroke:none;stroke-width:1;stroke-linejoin:round"><path
         id="path29"
         style="display:inline;opacity:1;fill:#006400;stroke:none;stroke-width:0.997998;stroke-linecap:round;stroke-linejoin:round;stroke-dasharray:none;paint-order:stroke fill markers"
         d="m 14.8,0.99999994 c 0,0 -3.2,4.16e-6 -3.2,4.14814796 V 13.444444 L 10.533334,12.407407 H 10 c 0,0 1.6,1.037038 1.6,2.592592 h 1.066667 v 0 -9.8518511 c 0,0 2e-6,-3.111111 2.133333,-3.111111 0,0 2.133334,3.2e-6 2.133334,3.111111 h 1.066667 c 0,0 -4e-6,-4.14814796 -3.200001,-4.14814796 z" /><path
         d="m 3.5000002,9.5000059 v 0 C 3.5000002,12.5 8.5,12.5 10,12.5 h 0.5 c -1,-1 -4.5,-2 -4.5,-2 2.5,0 4,1 4.5,1.5 C 10.5,9.5 5,9.5 3.5000002,9.5000059 Z"
         style="display:inline;opacity:1;fill:#556b2f;stroke:none;stroke-width:0.997995;stroke-linecap:round;stroke-linejoin:round;stroke-dasharray:none;paint-order:stroke fill markers"
         id="path120" /><path
         id="path4"
         style="display:inline;opacity:1;fill:#b8860b;stroke:none;stroke-width:0.998;stroke-linecap:round;stroke-linejoin:round;stroke-dasharray:none;paint-order:stroke fill markers"
         d="m 17.5,4.5 c -3.374999,0 0,5 0,5 0,0 3.374999,-5 0,-5 z" /><path
         id="path4-9"
         style="display:inline;opacity:1;fill:#daa520;stroke:none;stroke-width:0.0996992;stroke-linecap:round;stroke-linejoin:round;stroke-dasharray:none;paint-order:stroke fill markers"
         d="m 17.5,4.5 c -2.25,0 0,5 0,5 0,0 2.250001,-5 0,-5 z" /><path
         d="M 12,13.999953 A 6.25,6.25 0 0 0 6.1875,17.998 6.2499995,6.2499995 0 0 0 6.1836,18.0039 5,5 0 0 0 6,18 5,5 0 0 0 1,23 h 22 a 6,6 0 0 0 -5.654297,-5.988281 6.2499995,6.2499995 0 0 0 -0.0039,-0.0059 A 6.25,6.25 0 0 0 12,14 Z"
         style="display:inline;fill:#8b4513;stroke:none;stroke-width:1;stroke-linecap:round;stroke-linejoin:round;paint-order:stroke fill markers"
         id="path5" /></g></g></svg>
