<?xml version="1.0" encoding="UTF-8" standalone="no"?>
<!-- Created with Inkscape (http://www.inkscape.org/) -->

<svg
   width="24"
   height="24"
   viewBox="0 0 24 24"
   version="1.1"
   id="svg1"
   xml:space="preserve"
   xmlns="http://www.w3.org/2000/svg"
   xmlns:svg="http://www.w3.org/2000/svg"><defs
     id="defs1" /><g
     id="layer1"
     style="display:inline"><path
       id="path1"
       style="display:inline;fill:#e8eaed;fill-opacity:1;stroke:none;stroke-width:0;stroke-linecap:butt;stroke-linejoin:bevel;stroke-dasharray:none"
       d="m 18,2 a 3,3 0 0 0 -3,3 3,3 0 0 0 0.0625,0.5722656 C 13.957832,6.2153581 13.452136,6.5083452 11.492188,7.6523438 9.9202658,8.5698563 8.8075607,9.2182689 7.9492188,9.7207031 A 3,3 0 0 0 6,9 3,3 0 0 0 3,12 3,3 0 0 0 6,15 3,3 0 0 0 7.9570312,14.273438 c 1.0181791,0.598767 2.1663578,1.274476 3.5488278,2.083984 1.382808,0.809705 2.533625,1.481709 3.554688,2.076172 A 3,3 0 0 0 15,19 a 3,3 0 0 0 3,3 3,3 0 0 0 3,-3 3,3 0 0 0 -3,-3 3,3 0 0 0 -1.943359,0.716797 C 13.949924,15.48213 11.045947,13.783293 8.9414062,12.554688 A 3,3 0 0 0 9,12 3,3 0 0 0 8.9453125,11.4375 C 11.250672,10.093963 13.753553,8.6331759 16.056641,7.2851562 A 3,3 0 0 0 18,8 3,3 0 0 0 21,5 3,3 0 0 0 18,2 Z" /></g></svg>
