<?xml version="1.0" encoding="UTF-8" standalone="no"?>
<!-- Created with Inkscape (http://www.inkscape.org/) -->

<svg
   width="24"
   height="24"
   viewBox="0 0 24 24"
   version="1.1"
   id="svg1"
   inkscape:version="1.3.2 (091e20e, 2023-11-25, custom)"
   sodipodi:docname="lettuce_color.svg"
   xml:space="preserve"
   inkscape:export-filename="lettuce_color.svg"
   inkscape:export-xdpi="96"
   inkscape:export-ydpi="96"
   xmlns:inkscape="http://www.inkscape.org/namespaces/inkscape"
   xmlns:sodipodi="http://sodipodi.sourceforge.net/DTD/sodipodi-0.dtd"
   xmlns="http://www.w3.org/2000/svg"
   xmlns:svg="http://www.w3.org/2000/svg"><sodipodi:namedview
     id="namedview1"
     pagecolor="#ffffff"
     bordercolor="#000000"
     borderopacity="0.25"
     inkscape:showpageshadow="2"
     inkscape:pageopacity="0.0"
     inkscape:pagecheckerboard="true"
     inkscape:deskcolor="#d1d1d1"
     inkscape:document-units="px"
     showgrid="true"
     inkscape:zoom="22.627417"
     inkscape:cx="11.954524"
     inkscape:cy="19.290757"
     inkscape:window-width="1920"
     inkscape:window-height="1009"
     inkscape:window-x="1912"
     inkscape:window-y="-8"
     inkscape:window-maximized="1"
     inkscape:current-layer="layer1"
     showguides="true"
     inkscape:lockguides="false"><inkscape:grid
       id="grid1"
       units="px"
       originx="0"
       originy="0"
       spacingx="1"
       spacingy="1"
       empcolor="#00aaff"
       empopacity="0.2"
       color="#00aaff"
       opacity="0.2"
       empspacing="1"
       dotted="false"
       gridanglex="30"
       gridanglez="30"
       visible="true" /><inkscape:grid
       id="grid2"
       units="px"
       originx="0"
       originy="0"
       spacingx="12"
       spacingy="12"
       empcolor="#000000"
       empopacity="0.30196078"
       color="#000000"
       opacity="0.30196078"
       empspacing="5"
       dotted="false"
       gridanglex="30"
       gridanglez="30"
       visible="true" /><inkscape:grid
       id="grid3"
       units="px"
       originx="0.5"
       originy="0.5"
       spacingx="23"
       spacingy="23"
       empcolor="#e50000"
       empopacity="0.2"
       color="#e50000"
       opacity="0.2"
       empspacing="5"
       dotted="false"
       gridanglex="30"
       gridanglez="30"
       visible="true" /></sodipodi:namedview><defs
     id="defs1" /><g
     inkscape:label="Layer 1"
     inkscape:groupmode="layer"
     id="layer1"
     style="display:inline"><g
       id="g117"
       inkscape:label="lettuce"
       transform="matrix(1.2571428,0,0,1.2187838,-3.0857141,-2.6563514)"
       style="stroke:none;stroke-width:0.807876"><path
         id="path26"
         style="display:inline;opacity:1;fill:#7fff00;stroke:none;stroke-width:0.807875;stroke-linecap:round;stroke-linejoin:round;stroke-dasharray:none;paint-order:stroke fill markers"
         d="M 10.5,4.1015625 C 10.029152,4.1011509 9.5740547,4.2711188 9.21875,4.5800781 8.8731484,4.3024877 8.4432795,4.1509312 8,4.1503906 6.9228943,4.1508219 6.0501341,5.0244569 6.0507812,6.1015625 6.0514746,6.2717947 6.0744566,6.4412043 6.1191406,6.6054688 6.0794764,6.602953 6.0397441,6.6016502 6,6.6015625 4.923657,6.6019936 4.0512123,7.4744381 4.0507812,8.5507812 4.0509938,9.0051656 4.2098807,9.4452133 4.5,9.7949219 3.2500025,9.8007819 3.25,12.050781 3.25,12.050781 c 0,6.670999 4.8049153,8.395075 7.292969,8.841797 0.451408,0.101176 0.935653,0.158203 1.457031,0.158203 1.292697,-0.0075 2.393079,-0.212454 3.332031,-0.552734 A 5,5 0 0 1 12.5,16 a 5,5 0 0 1 0.126953,-1.041016 5,5 0 0 1 0.259766,-0.835937 5,5 0 0 0 -0.259766,0.835937 C 12.749657,14.983347 12.873852,14.999636 13,15 c 1.076343,-4.31e-4 1.948788,-0.872876 1.949219,-1.949219 -2.65e-4,-0.579972 -0.258682,-1.129732 -0.705078,-1.5 0.446396,-0.370266 0.704813,-0.920026 0.705078,-1.5 C 14.949073,9.4556858 14.677193,8.8932265 14.210938,8.5234375 14.36532,8.2405572 14.447189,7.9238223 14.449219,7.6015625 14.450036,6.9634055 14.138546,6.3652267 13.615234,6 13.278968,5.7510251 12.871533,5.6168114 12.453125,5.6171875 c -0.0176,0.00106 -0.03517,0.00237 -0.05273,0.00391 C 12.199379,4.733011 11.410538,4.1022639 10.5,4.1015625 Z M 14.521484,12 A 5,5 0 0 0 13.873047,12.583984 5,5 0 0 1 14.521484,12 Z m -0.679687,0.617188 a 5,5 0 0 0 -0.535156,0.689453 5,5 0 0 0 -0.404297,0.779297 5,5 0 0 1 0.404297,-0.779297 5,5 0 0 1 0.535156,-0.689453 z" /><path
         d="m 15.011719,8.7207031 c 0.08963,0.1365806 0.171125,0.2796867 0.236328,0.4375 0.140363,0.3397257 0.152469,0.4196881 0.152344,0.9062499 v 0.44336 l -0.08008,0.234375 c -0.08877,0.257503 -0.176812,0.441727 -0.308594,0.65039 -0.04699,0.07441 -0.08594,0.147383 -0.08594,0.16211 0,0.01473 0.03164,0.07162 0.06836,0.125 0.110232,0.160216 0.283129,0.538321 0.34375,0.75 0.0704,0.245839 0.09605,0.733217 0.05273,1.001953 -0.105105,0.652006 -0.496308,1.260618 -1.046875,1.626953 -0.339305,0.225766 -0.695489,0.35368 -1.126953,0.40625 -0.09591,0.01169 -0.181948,0.03353 -0.191406,0.04883 -0.03017,0.04881 -0.04948,0.442693 -0.03516,0.716797 0.0791,1.514411 0.914247,2.890354 2.220704,3.658203 0.516246,0.303416 0.555718,0.34148 0.572265,0.541015 9.77e-4,0.01178 0.0013,0.02025 0.002,0.03125 a 2.75,2.75 0 0 0 2.375,-2.037109 A 3.25,3.25 0 0 0 20.75,15.25 3.25,3.25 0 0 0 19.777344,12.929688 3.25,3.25 0 0 0 20.25,11.25 3.25,3.25 0 0 0 17,8 3.25,3.25 0 0 0 15.011719,8.7207031 Z"
         style="display:inline;opacity:1;fill:#adff2f;stroke:none;stroke-width:0.807875;stroke-linecap:round;stroke-linejoin:round;stroke-dasharray:none;paint-order:stroke fill markers"
         id="path73" /><path
         d="m 12.5,3 a 1.5,1.5 0 0 0 -1.269531,0.7304688 c 0.01491,0.00474 0.0301,0.00863 0.04492,0.013672 0.600297,0.2041747 1.117058,0.6526635 1.396484,1.2109375 l 0.0918,0.1816406 L 13,5.1953125 c 0.988293,0.2429932 1.730845,1.0235184 1.904297,2.0039062 0.05038,0.2847664 0.02103,0.7598445 -0.05859,1.0429688 0.04902,-0.036256 0.09415,-0.07089 0.158203,-0.1132812 0.397783,-0.2632587 0.867974,-0.4537939 1.361328,-0.5527344 0.361463,-0.07249 0.960046,-0.072278 1.320313,0 0.457404,0.091765 0.870479,0.2511117 1.246094,0.4804687 A 1.5,1.5 0 0 0 18.683594,7.578125 2,2 0 0 0 19,6.5 2,2 0 0 0 17,4.5 2,2 0 0 0 16.740234,4.5175781 2,2 0 0 0 15,3.5 2,2 0 0 0 13.857422,3.8632813 1.5,1.5 0 0 0 12.5,3 Z"
         style="display:inline;opacity:1;fill:#9acd32;stroke:none;stroke-width:0.807876;stroke-linecap:round;stroke-linejoin:round;stroke-dasharray:none;paint-order:stroke fill markers"
         id="path77" /><path
         id="path103"
         style="opacity:1;fill:#fafad2;stroke:none;stroke-width:0.807876;stroke-linecap:round;stroke-linejoin:round;stroke-dasharray:none;paint-order:stroke fill markers"
         d="m 6.4569002,9.644996 c 0.1948287,0.140751 0.37321,0.30823 0.5253945,0.504053 0.1019527,0.131182 0.2519597,0.38914 0.314236,0.537759 0.1172485,0.279806 0.1761145,0.561027 0.1759992,0.843598 l -9.841e-4,0.0017 c -0.029148,0.166495 -0.039974,0.335287 -0.033713,0.503705 -0.046707,0.778156 0.012635,1.616197 0.255513,2.463689 -0.3385712,-0.224954 -0.717538,-0.37687 -1.114081,-0.449262 l -0.2636804,0.456726 c 0.2537634,0.02856 0.5070215,0.09436 0.7508175,0.203459 0.1633224,0.07308 0.4374153,0.244344 0.5735231,0.35819 0.1859823,0.155574 0.3450929,0.330952 0.4751538,0.524666 0.06928,0.140793 0.1440824,0.281543 0.2258463,0.421322 0.00124,0.003 0.00255,0.006 0.0038,0.009 l 0.00173,9.99e-4 C 8.9712007,17.088535 9.9684758,18.115775 11.5,19 l 0.25,-0.433012 c 0,0 -1.688509,-0.977979 -2.8466754,-2.795976 -0.094091,-0.305474 -0.1278337,-0.624584 -0.098466,-0.954451 0.015741,-0.176745 0.088594,-0.491341 0.1524049,-0.658506 0.095255,-0.249526 0.2287088,-0.476235 0.387916,-0.67589 L 8.8353508,13.345683 c -0.2729575,0.394876 -0.4464731,0.852076 -0.5054874,1.336469 -0.3046291,-0.729724 -0.4971596,-1.55512 -0.4894953,-2.472481 0.054769,-0.202082 0.081011,-0.41104 0.081989,-0.622479 l 0.00361,-0.0024 C 7.9837722,11.240671 8.1261306,10.91876 8.354651,10.623463 8.4532709,10.496029 8.6657981,10.287519 8.7982297,10.187194 8.9959082,10.037425 9.2115846,9.921626 9.4362039,9.836097 L 9.0946497,9.52156 C 8.7492788,9.67844 8.437696,9.896387 8.1792139,10.165767 8.3658484,9.578488 8.6342223,8.9636074 9.0048027,8.3217427 L 8.5717905,8.0717423 c 0,0 -0.5590589,0.9702297 -0.8970794,2.3936307 C 7.4900471,10.066119 7.2118949,9.714288 6.8670275,9.430729 Z" /></g></g></svg>
