<?xml version="1.0" encoding="UTF-8" standalone="no"?>
<!-- Created with Inkscape (http://www.inkscape.org/) -->

<svg
   width="16"
   height="22"
   viewBox="0 0 16 22"
   version="1.1"
   id="svg1"
   xml:space="preserve"
   xmlns="http://www.w3.org/2000/svg"
   xmlns:svg="http://www.w3.org/2000/svg"><defs
     id="defs1" /><g
     id="layer1"
     style="display:inline;opacity:1"
     transform="translate(-4,-1)"><g
       id="g39"
       transform="matrix(0.97461927,0,0,1.0144548,0.26395882,-0.42493934)"
       style="fill:#228b22;stroke:none;stroke-width:1.0057;stroke-dasharray:none;paint-order:stroke fill markers"><g
         id="g38"
         style="fill:#228b22;stroke:none;stroke-width:1.00502"><path
           d="m 15.119792,3.1299007 1.282552,1.7250472 1.795573,0.9857413 2.052084,0.2464353 L 19.480469,4.115642 17.684896,3.1299007 Z"
           style="display:inline;opacity:1;fill:#008000;stroke:none;stroke-width:1.0057;stroke-linecap:round;stroke-linejoin:round;stroke-dasharray:none;paint-order:stroke fill markers"
           id="path67" /></g><path
         id="path35"
         style="display:inline;opacity:1;fill:#008000;stroke:none;stroke-width:1.0057;stroke-linecap:round;stroke-linejoin:round;stroke-dasharray:none;paint-order:stroke fill markers"
         d="m 18.454428,1.4048535 c 0.01009,-0.02263 -0.769532,1.7250472 -0.769532,1.7250472 L 19.480469,4.115642 19.99349,2.1441595 Z" /><g
         id="g37"
         style="fill:#228b22;stroke:none;stroke-width:1.0057;stroke-linecap:round;stroke-linejoin:round;stroke-dasharray:none;paint-order:stroke fill markers"><path
           style="display:inline;opacity:1;fill:#228b22;stroke:none;stroke-width:1.0057;stroke-linecap:round;stroke-linejoin:round;stroke-dasharray:none;paint-order:stroke fill markers"
           d="M 16.145834,5.1013832 C 10.502605,22.10542 3.833334,23.091161 3.833334,23.091161 v 0 C 13.067709,21.119679 17.941407,6.0871245 17.941407,6.0871245 Z"
           id="path39" /><path
           d="M 17.941407,6.0871245 C 17.171876,9.2907835 12.554688,22.10542 3.833334,23.091161 c 9.747396,0 16.416667,-17.0040365 16.416667,-17.0040365 z"
           style="display:inline;opacity:1;fill:#008000;stroke:none;stroke-width:1.0057;stroke-linecap:round;stroke-linejoin:round;stroke-dasharray:none;paint-order:stroke fill markers"
           id="path5" /><path
           d="M 15.119792,3.1299007 C 11.181983,14.944573 6.911459,21.119679 3.833334,23.091161 6.3984382,22.10542 7.9375007,20.133937 9.989584,17.176714 12.041668,14.21949 14.350261,9.5372188 16.145834,5.1013832 Z"
           style="display:inline;opacity:1;fill:#228b22;stroke:none;stroke-width:1.0057;stroke-linecap:round;stroke-linejoin:round;stroke-dasharray:none;paint-order:stroke fill markers"
           id="path2" /></g></g></g></svg>
