<?xml version="1.0" encoding="UTF-8" standalone="no"?>
<!-- Created with Inkscape (http://www.inkscape.org/) -->

<svg
   width="24"
   height="24"
   viewBox="0 0 24 24"
   version="1.1"
   id="svg1"
   xml:space="preserve"
   xmlns="http://www.w3.org/2000/svg"
   xmlns:svg="http://www.w3.org/2000/svg"><defs
     id="defs1" /><g
     id="layer1"
     style="display:inline"><g
       id="g35"
       transform="matrix(1,0,0,0.97435897,0,0.06410257)"
       style="stroke:none;stroke-width:1.01307;stroke-linecap:round;stroke-linejoin:round;stroke-dasharray:none;paint-order:stroke fill markers"><path
         d="m 14.5,2.5 c 0,0 -1.584469,1.1896147 -1.579292,3.2148437 -0.138404,-0.066969 -0.27935,-0.1231167 -0.423275,-0.1621093 -0.261861,-0.070943 -0.732437,-0.070943 -0.994295,0 C 11.331834,5.5991444 11.163398,5.6660758 11,5.7519531 V 3.5 c 0,0 7.55e-4,-1 1.000285,-1 z"
         style="display:inline;opacity:1;fill:#556b2f;stroke:none;stroke-width:1.01307;stroke-linecap:round;stroke-linejoin:round;stroke-dasharray:none;paint-order:stroke fill markers"
         id="path33" /><g
         id="g36"
         style="opacity:1;stroke:none;stroke-width:1.01307;stroke-linecap:round;stroke-linejoin:round;stroke-dasharray:none;paint-order:stroke fill markers"><path
           d="M 7.15625,21.818359 C 5.5475476,20.85061 4.2811087,18.925435 3.7402344,16.464844 3.5608219,15.648645 3.4987212,15.00824 3.5,13.964844 3.5013557,12.858585 3.5803021,12.183394 3.8222656,11.195313 4.3742461,8.9412479 5.5998228,7.0996083 7.1484375,6.1777344 A 5.1333333,8 0 0 0 6.1328125,6 5.1333333,8 0 0 0 1,14 5.1333333,8 0 0 0 6.1328125,22 5.1333333,8 0 0 0 7.15625,21.818359 Z"
           style="display:inline;opacity:1;fill:#ff8c00;stroke:none;stroke-width:1.01307;stroke-linecap:round;stroke-linejoin:round;stroke-dasharray:none;paint-order:stroke fill markers"
           id="path12" /><path
           d="m 16.837891,6.1835937 c 1.030984,0.617413 1.944718,1.6409919 2.611328,3.0156251 1.40919,2.9059342 1.399373,6.7889612 -0.02344,9.6425782 -0.465119,0.932858 -0.902309,1.543068 -1.560547,2.175781 -0.332301,0.319416 -0.674155,0.583933 -1.027343,0.798828 A 5.1333333,8 0 0 0 17.867187,22 5.1333333,8 0 0 0 23,14 5.1333333,8 0 0 0 17.867187,6 5.1333333,8 0 0 0 16.837891,6.1835937 Z"
           style="display:inline;opacity:1;fill:#ff8c00;stroke:none;stroke-width:1.01307;stroke-linecap:round;stroke-linejoin:round;stroke-dasharray:none;paint-order:stroke fill markers"
           id="path8" /><ellipse
           style="display:inline;opacity:1;fill:#ff8c00;stroke:none;stroke-width:1.01307;stroke-linecap:round;stroke-linejoin:round;stroke-dasharray:none;paint-order:stroke fill markers"
           id="path2-2"
           cx="12"
           cy="14"
           rx="3.5"
           ry="8" /><path
           d="M 10.478516,21.857422 C 9.4106838,20.924311 8.5525032,19.037391 8.1816406,16.628906 8.1322607,16.308225 8.0704898,15.836623 8.0449219,15.580078 c -0.060881,-0.610874 -0.060881,-2.555142 0,-3.166015 C 8.3366138,9.4873006 9.2471738,7.2037447 10.478516,6.1367187 A 5.5193793,7.9999999 0 0 0 9.5195313,6 5.5193793,7.9999999 0 0 0 4,14 5.5193793,7.9999999 0 0 0 9.5195313,22 5.5193793,7.9999999 0 0 0 10.478516,21.857422 Z"
           style="display:inline;opacity:1;fill:#ff8c00;stroke:none;stroke-width:1.01307;stroke-linecap:round;stroke-linejoin:round;stroke-dasharray:none;paint-order:stroke fill markers"
           id="path30" /><path
           d="m 13.525391,6.140625 c 1.229239,1.0685646 2.138321,3.3499566 2.429687,6.273438 0.06088,0.610873 0.06088,2.555141 0,3.166015 -0.292902,2.9389 -1.217266,5.223445 -2.423828,6.279297 A 5.5193793,7.9999999 0 0 0 14.480469,22 5.5193793,7.9999999 0 0 0 20,14 5.5193793,7.9999999 0 0 0 14.480469,6 5.5193793,7.9999999 0 0 0 13.525391,6.140625 Z"
           style="display:inline;opacity:1;fill:#ff8c00;stroke:none;stroke-width:1.01307;stroke-linecap:round;stroke-linejoin:round;stroke-dasharray:none;paint-order:stroke fill markers"
           id="path27" /></g></g></g></svg>
