<?xml version="1.0" encoding="UTF-8" standalone="no"?>
<!-- Created with Inkscape (http://www.inkscape.org/) -->

<svg
   width="24"
   height="24"
   viewBox="0 0 24 24"
   version="1.1"
   id="svg1"
   xml:space="preserve"
   xmlns="http://www.w3.org/2000/svg"
   xmlns:svg="http://www.w3.org/2000/svg"><defs
     id="defs1" /><g
     id="layer1"
     style="display:inline"><g
       id="g103"
       transform="matrix(1.0000676,0,0,1,-4.6307501e-4,1.307e-8)"
       style="stroke:none;stroke-width:0.999973"><g
         id="g99"
         style="display:inline;fill:#000000;stroke:none;stroke-width:0.999973"><g
           id="g104"
           style="display:inline;fill:#006400;stroke:none;stroke-width:0.999973;stroke-linejoin:round;stroke-dasharray:none;paint-order:stroke fill markers"><path
             d="m 11.4375,11.369141 c -0.03217,-0.02942 -0.05967,-0.06093 -0.08008,-0.0957 -0.02978,-0.05075 -0.288143,-0.761411 -0.574219,-1.5781255 -0.188984,-0.5395283 -0.298487,-0.84627 -0.388672,-1.0898437 l -0.0625,0.3105468 c 0.339952,0.7627931 0.711324,1.7016014 1.111328,2.8632814 z"
             style="display:inline;opacity:1;fill:#006400;stroke:none;stroke-width:0.999973;stroke-linecap:round;stroke-linejoin:round;stroke-dasharray:none;paint-order:stroke fill markers"
             id="path93" /><path
             d="M 10.296875,8.3515625 C 10.23729,8.2006417 10.194828,8.1013403 10.162109,8.0488281 10.002633,7.7928729 9.8809492,7.4815618 9.8125,7.1777344 L 9.753906,7.7226562 c 0.14232,0.2655877 0.292696,0.5679044 0.449219,0.9062501 z"
             style="display:inline;opacity:1;fill:#006400;stroke:none;stroke-width:0.999973;stroke-linecap:round;stroke-linejoin:round;stroke-dasharray:none;paint-order:stroke fill markers"
             id="path97" /><path
             d="m 9.7539063,6.7773437 c -0.00468,-0.083535 -0.00471,-0.165101 0.00195,-0.2402343 0.030512,-0.3441962 0.137491,-0.6969966 0.2890657,-0.9550782 l 0.08203,-0.1386718 -0.09961,-0.2128907 C 9.911747,4.9840522 9.857188,4.8242508 9.8417969,4.6660156 9.423567,4.383506 9.3046875,4.0429687 9.3046875,4.0429687 9.1416429,3.5682915 8.203125,3.9296875 8.203125,3.9296875 7.2451363,2.6864824 6.3085937,3.0488281 6.3085937,3.0488281 5.3708819,3.4104821 6.1651864,4.1784801 5.859375,4.8339844 4.9419418,6.8004967 6.0748338,6.8470782 6.0429687,6.9140625 6.3690579,7.863417 6.5320552,8.338149 7.6328125,8.4511719 c 0,0 -0.6127102,1.3101814 2.2207031,1.8300781 L 10.974609,12 l 0.0332,-0.01172 c 0,0 0,-0.002 0,-0.002 -9.26e-4,-0.0027 -0.394937,-1.141276 -0.916016,-2.4492186 L 8.8066406,8.5351563 9.90625,9.0800781 C 9.7551187,8.7118633 9.5984953,8.3414892 9.4375,7.984375 L 8.3183594,7.1113281 9.2480469,7.5722656 C 8.7772477,6.5784542 8.3072434,5.7817109 7.96875,5.6835937 8.2134131,5.7214186 8.7744611,5.989177 9.6015625,7.4453125 Z"
             style="display:inline;opacity:1;fill:#006400;stroke:none;stroke-width:0.999973;stroke-linecap:round;stroke-linejoin:round;stroke-dasharray:none;paint-order:stroke fill markers"
             id="path99" /></g><g
           id="g102"
           style="display:inline;fill:#dc143c;stroke:none;stroke-width:0.999973"><path
             d="m 10.394531,8.6054688 c -0.0328,-0.08858 -0.07344,-0.192566 -0.09766,-0.2539063 l -0.09375,0.2773438 C 10.046602,8.2905606 9.8962263,7.9882439 9.7539063,7.7226562 L 9.8125,7.1777344 C 9.7815918,7.0405411 9.7610505,6.9049176 9.7539063,6.7773437 L 9.6015625,7.4453125 C 8.7744611,5.989177 8.2134131,5.7214186 7.96875,5.6835937 8.3072434,5.7817109 8.7772477,6.5784542 9.2480469,7.5722656 L 8.3183594,7.1113281 9.4375,7.984375 C 9.5984953,8.3414892 9.7551187,8.7118633 9.90625,9.0800781 L 8.8066406,8.5351563 10.091797,9.5371094 c 0.521079,1.3079426 0.91509,2.4465356 0.916016,2.4492186 l 0.435546,-0.167969 v -0.03906 C 11.043355,10.617617 10.671983,9.6788087 10.332031,8.9160156 Z"
             style="display:inline;opacity:1;fill:#dc143c;stroke:none;stroke-width:1.01887;stroke-linecap:round;stroke-linejoin:round"
             id="path95" /></g></g><g
         id="g27"
         transform="translate(-0.2500002)"
         style="display:inline;opacity:1;fill:#000000;stroke:none;stroke-width:0.999973;stroke-linejoin:round;stroke-dasharray:none;paint-order:stroke fill markers"><path
           style="display:inline;opacity:1;fill:#006400;stroke:none;stroke-width:0.999973;stroke-linecap:round;stroke-linejoin:round;stroke-dasharray:none;paint-order:stroke fill markers"
           d="M 12.007923,11 10.960121,8 v 0 c -1.0478005,-1.5 0,-2.5 0,-2.5 -0.5239,-1 -0.5239,-1 0,-1.5 0.523901,-0.5 0.523901,-1 0.523901,-1 0,-0.5 1.047801,-0.5 1.047801,-0.5 0.5239,-1.5 1.571701,-1.5 1.571701,-1.5 1.047802,0 0.523901,1 1.047802,1.5 1.571702,1.5 0.469759,1.9491269 0.523902,2 0,1 0,1.5 -1.047803,2 0,0 1.047803,1 -1.571702,2.5 l -0.5239,2 z"
           id="path22" /><path
           id="path23"
           style="display:inline;opacity:1;fill:#dc143c;stroke:none;stroke-width:0.999973;stroke-linecap:round;stroke-linejoin:round;stroke-dasharray:none;paint-order:stroke fill markers"
           d="m 13.480469,4.0019531 c -0.03986,0.00365 -0.07855,0.017709 -0.115235,0.042969 0.05396,-0.028484 0.09345,-0.039439 0.115235,-0.042969 z M 13.361328,4.046875 C 13.132993,4.1698249 12.669889,4.6203847 12.347656,6.2714844 L 11.5,5 12.291016,6.5839844 C 12.240657,6.8820696 12.195976,7.217036 12.15625,7.5878906 L 11.25,6.5 12.125,7.9003906 C 12.047374,8.7405493 12,9.7585395 12,11 h 0.5 c 0,0 0.0014,-1.2022842 0.07227,-2.6074219 L 13.5,7 12.599609,7.9003906 c 0.0243,-0.3967026 0.05402,-0.7975839 0.0918,-1.1875 L 13.5,5.5 12.738281,6.2617188 C 12.865857,5.1684563 13.060925,4.2595642 13.361328,4.046875 Z" /></g><g
         id="g119"
         style="display:inline;stroke:none;stroke-width:0.999973"><g
           id="g117"
           style="fill:#006400;stroke:none;stroke-width:0.999973"><path
             d="m 12.56153,11.789525 c 0.373094,-1.085403 0.72067,-1.969269 1.04149,-2.7042152 -0.07727,0.052371 -0.15974,0.1083849 -0.214942,0.1425326 -0.0835,0.051651 -0.156304,0.104237 -0.160229,0.1171501 -0.0039,0.012913 -0.113755,0.4320384 -0.244252,0.9313435 -0.148396,0.567784 -0.250445,0.93237 -0.273562,0.972346 -0.03082,0.05331 -0.0843,0.109402 -0.142643,0.154247 z"
             style="display:inline;opacity:1;fill:#006400;stroke:none;stroke-width:1.0201;stroke-linecap:round;stroke-linejoin:round;paint-order:stroke fill markers"
             id="path117" /><path
             d="m 16.195998,3.4972497 c 0.0098,0.034497 0.02184,0.068954 0.02931,0.1034826 0.0363,0.1678145 0.03282,0.4156554 -0.0078,0.568178 -0.03806,0.1427608 -0.134164,0.3331478 -0.21885,0.4354079 l -0.06057,0.072243 -0.01759,0.3358303 c -0.01795,0.31688 -0.05688,0.5528975 -0.125057,0.7556182 0.09862,-0.0522 0.179829,-0.074572 0.240344,-0.083958 -0.08814,0.025609 -0.185366,0.1011828 -0.289194,0.2128227 -0.04583,0.1050361 -0.100901,0.2037514 -0.169999,0.3006853 -0.05134,0.07202 -0.137854,0.1625806 -0.226666,0.2479677 -0.08993,0.1475872 -0.180109,0.3111105 -0.273562,0.4881254 0.0059,0.1516593 -0.0061,0.346761 -0.03322,0.4549329 -0.0041,0.016423 -0.011,0.032438 -0.01563,0.048813 L 15.686,7.1113305 14.927842,7.700986 c -0.122153,0.2656853 -0.313906,0.5272142 -0.580343,0.7868582 -0.08407,0.1961492 -0.167263,0.3923566 -0.248159,0.5896556 l 1.098156,-0.5427955 -1.281834,1.0016334 c -0.520985,1.3090313 -0.914479,2.4484373 -0.914479,2.4484373 l 0.02736,0.01171 1.119651,-1.716249 c 2.830602,-0.5194099 2.219761,-1.8314468 2.219761,-1.8314468 1.099674,-0.1128624 1.262938,-0.5876072 1.588614,-1.5366189 -0.03184,-0.066966 1.100415,-0.11148 0.183677,-2.0774619 -0.305579,-0.6553274 0.487412,-1.424896 -0.449423,-1.7865391 0,0 -0.692876,-0.2645603 -1.494821,0.4490754 z"
             style="display:inline;opacity:1;fill:#006400;stroke:none;stroke-width:1.0201;stroke-linecap:round;stroke-linejoin:round;paint-order:stroke fill markers"
             id="path107" /></g><g
           id="g118"
           style="display:inline;fill:#dc143c;stroke:none;stroke-width:0.999973"><path
             d="m 14.347499,8.4878442 c -0.17902,0.1744565 -0.388295,0.3483708 -0.635054,0.5232705 -0.03233,0.022917 -0.06982,0.047349 -0.109425,0.074195 -0.32082,0.7349462 -0.668396,1.6188123 -1.04149,2.7042153 v 0.02538 l 0.439653,0.169868 c 0,0 0.393494,-1.139406 0.914479,-2.4484374 L 15.197496,8.5347043 14.09934,9.0774998 c 0.0809,-0.197299 0.164093,-0.3935064 0.248159,-0.5896556 z"
             style="display:inline;opacity:1;fill:#dc143c;stroke:none;stroke-width:1.0201;stroke-linecap:round;stroke-linejoin:round;paint-order:stroke fill markers"
             id="path116" /><path
             d="m 15.027497,7.4373983 c -0.02506,0.088579 -0.05951,0.1762638 -0.09966,0.2635877 L 15.686,7.1113305 Z"
             style="display:inline;opacity:1;fill:#dc143c;stroke:none;stroke-width:1.0201;stroke-linecap:round;stroke-linejoin:round;paint-order:stroke fill markers"
             id="path114" /><path
             d="m 15.349909,6.4455274 c -0.105573,0.1015019 -0.216456,0.1945213 -0.291148,0.2362527 -0.01943,0.010851 -0.01925,0.023125 -0.002,0.082005 0.01067,0.036383 0.0168,0.1000063 0.01954,0.1698676 0.09345,-0.1770149 0.183628,-0.3405382 0.273562,-0.4881254 z"
             style="display:inline;opacity:1;fill:#dc143c;stroke:none;stroke-width:1.0201;stroke-linecap:round;stroke-linejoin:round;paint-order:stroke fill markers"
             id="path112" /><path
             d="m 15.795424,5.7680093 c -0.01499,0.044571 -0.03068,0.087216 -0.04885,0.1288651 0.103828,-0.1116399 0.201051,-0.1872134 0.289194,-0.2128227 -0.06052,0.00939 -0.141727,0.031757 -0.240344,0.083958 z"
             style="display:inline;opacity:1;fill:#dc143c;stroke:none;stroke-width:1.0201;stroke-linecap:round;stroke-linejoin:round;paint-order:stroke fill markers"
             id="path109" /></g></g><g
         id="g105"
         style="display:inline;fill:#000000;stroke:none;stroke-width:0.999707"><path
           id="path21"
           style="display:inline;opacity:1;fill:#dc143c;stroke:none;stroke-width:0.999973;stroke-linecap:round;stroke-linejoin:round;stroke-dasharray:none;paint-order:stroke fill markers"
           d="m 12,10.5 a 4.5,4.5 0 0 0 -4.5,4.5 4.5,4.5 0 0 0 2.638672,4.095703 4.5,4.5 0 0 0 0.002,0.002 C 11.531925,20.096157 12,21.547661 12,23 c 0,-1.452339 0.468075,-2.903843 1.859375,-3.902344 7.52e-4,-5.39e-4 0.0012,-0.0014 0.002,-0.002 A 4.5,4.5 0 0 0 16.5,15 4.5,4.5 0 0 0 12,10.5 Z m -0.332031,8.976562 A 4.5,4.5 0 0 0 12,19.5 4.5,4.5 0 0 0 12.332031,19.476562 C 12.126366,19.498634 12,19.5 12,19.5 c 0,0 -0.126366,-0.0014 -0.332031,-0.02344 z" /><circle
           style="display:inline;opacity:1;fill:#f08080;stroke:none;stroke-width:0.999973;stroke-linecap:round;stroke-linejoin:round;stroke-dasharray:none;paint-order:stroke fill markers"
           id="path102"
           cx="10"
           cy="14"
           r="1.5" /></g></g></g></svg>
