<?xml version="1.0" encoding="UTF-8" standalone="no"?>
<!-- Created with Inkscape (http://www.inkscape.org/) -->

<svg
   width="24"
   height="24"
   viewBox="0 0 24 24"
   version="1.1"
   id="svg1"
   xmlns="http://www.w3.org/2000/svg"
   xmlns:svg="http://www.w3.org/2000/svg">
  <defs
     id="defs1" />
  <g
     id="layer1"
     style="display:inline">
    <g
       id="g1"
       style="stroke:none">
      <path
         style="display:inline;fill:#4682b4;stroke:none;stroke-width:1;stroke-linecap:round;stroke-linejoin:round;stroke-miterlimit:0;stroke-dasharray:none;paint-order:stroke fill markers"
         d="m 11.5,2 v -0.5 0 C 11.5,1 12,1 12,1 v 0 0 c 0.5,0 0.5,0.5 0.5,0.5 v 0 0.5 z"
         id="path151" />
      <path
         style="display:inline;opacity:1;fill:#4682b4;stroke:none;stroke-width:1;stroke-linecap:round;stroke-linejoin:round;stroke-miterlimit:0;stroke-dasharray:none;paint-order:stroke fill markers"
         d="m 12,18 h 0.5 v 3 0 c 0,2 -2,2 -2,2 v 0 c -2,0 -2,-2.5 -2,-2.5 v -1 0 C 8.5,19 9,19 9,19 v 0 c 0.5,0 0.5,0.5 0.5,0.5 v 1 0 c 0,1.5 1,1.5 1,1.5 v 0 c 1,0 1,-1 1,-1 v -3 z"
         id="path353" />
      <rect
         style="display:inline;fill:#000000;stroke:none;stroke-width:1;stroke-linecap:round;stroke-linejoin:round;stroke-miterlimit:0;stroke-dasharray:none;paint-order:stroke fill markers"
         id="rect155"
         width="0.5"
         height="9"
         x="11.75"
         y="9" />
      <path
         style="display:inline;opacity:1;fill:#4682b4;stroke:none;stroke-width:1;stroke-linecap:round;stroke-linejoin:round;stroke-miterlimit:0;stroke-dasharray:none;paint-order:stroke fill markers"
         d="M 12,2 C 2,2 2,10 2,10 v 0 C 2,9 4,9 4,9 v 0 c 4,0 4,3 4,3 v 0 C 8,2 12,2 12,2 Z"
         id="path260" />
      <path
         style="display:inline;fill:#4682b4;stroke:none;stroke-width:1;stroke-linecap:round;stroke-linejoin:round;stroke-miterlimit:0;stroke-dasharray:none;paint-order:stroke fill markers"
         d="m 12,2 c 10,0 10,8 10,8 v 0 C 22,9 20,9 20,9 v 0 c -4,0 -4,3 -4,3 v 0 C 16,2 12,2 12,2 Z"
         id="path260-1" />
      <path
         style="opacity:1;fill:#1e90ff;stroke:none;stroke-width:1;stroke-linecap:round;stroke-linejoin:round;stroke-miterlimit:0;stroke-dasharray:none;paint-order:stroke fill markers"
         d="M 8.0833334,11.75 C 8,12.5 8,11.500001 8.6666675,10.75 9.3333349,9.9999994 10.666666,9.5000002 12,9.5000001 13.333333,9.5 14.666666,10 15.333333,10.75 c 0.666666,0.75 0.666666,1.75 0.583333,0.999999 -0.08333,-0.75 -0.249997,-3.2499482 -0.916677,-5.4999939 C 14.333309,3.9999594 13.16669,2.0000405 12,2.0000404 10.83331,2.0000402 9.6666667,3.9999999 9,6.25 8.3333333,8.5000001 8.1666667,10.999999 8.0833334,11.75 Z"
         id="path304" />
    </g>
  </g>
</svg>
