<?xml version="1.0" encoding="UTF-8" standalone="no"?>
<!-- Created with Inkscape (http://www.inkscape.org/) -->

<svg
   width="24"
   height="24"
   viewBox="0 0 24 24"
   version="1.1"
   id="svg1"
   xmlns="http://www.w3.org/2000/svg"
   xmlns:svg="http://www.w3.org/2000/svg">
  <defs
     id="defs1" />
  <g
     id="layer1"
     style="display:inline">
    <g
       id="g1"
       style="stroke:none;stroke-width:1.00778"
       transform="matrix(0.98461538,0,0,1,0.27692315,0)">
      <path
         id="path127"
         style="display:inline;opacity:1;fill:#8b4513;stroke:none;stroke-width:1.00778;stroke-linecap:round;stroke-linejoin:round;paint-order:stroke fill markers"
         d="M 14,9.5 11.75,11.75 12,12 c 0.858377,0.858377 1.418233,1.419308 1.808594,1.890625 C 14.555142,14.792 14.671677,15.358388 15,17 v 5 c 0,0.999996 1.5,1 1.5,1 1.499996,0 1.5,-1 1.5,-1 v -5 c 0,0 -6.8e-4,-2.712869 -1.955078,-5.345703 C 15.625956,11.089893 15.117847,10.529583 14.5,10 Z" />
      <path
         id="path120"
         style="display:inline;opacity:1;fill:#a9a9a9;stroke:none;stroke-width:1.00778;stroke-linecap:round;stroke-linejoin:round;paint-order:stroke fill markers"
         d="M 12,1 C 12,1 8.0943008,1.9800709 8.0039062,7.796875 8.0028486,7.8649353 8,7.9306084 8,8 L 10,10 12.25,7.75 11.5,7 C 11.5,7 11.209497,6.6112591 11.054688,5.8359375 10.857866,4.8502133 10.880527,3.2389452 12,1 Z" />
      <path
         d="M 12.25,7.75 10,10 11.75,11.75 14,9.5 Z M 12,9 A 0.75,0.75 0 0 1 12.75,9.75 0.75,0.75 0 0 1 12,10.5 0.75,0.75 0 0 1 11.25,9.75 0.75,0.75 0 0 1 12,9 Z"
         style="display:inline;opacity:1;fill:#696969;stroke:none;stroke-width:1.00778;stroke-linecap:round;stroke-linejoin:round;paint-order:stroke fill markers"
         id="path124" />
      <path
         id="path139"
         style="display:inline;opacity:1;fill:#a9a9a9;stroke:none;stroke-width:1.00778;stroke-linecap:round;stroke-linejoin:round;paint-order:stroke fill markers"
         d="m 17.734375,2.765625 c 0,0 -0.07309,-4.305e-4 -0.199219,0.00977 -0.06064,0.0049 -0.133078,0.012689 -0.216797,0.023437 0.08272,-0.010597 0.156697,-0.018568 0.216797,-0.023437 -0.924291,0.057559 -4.815636,0.5398913 -4.925781,4.6152344 l 0.398437,0.3984375 1.351563,1.3515625 c 0,0 0.375009,-3.8750076 3.375,-6.375 z M 16.302734,3.03125 c -0.06351,0.020995 -0.127941,0.041951 -0.193359,0.066406 0.06508,-0.02431 0.130173,-0.045522 0.193359,-0.066406 z m -0.65625,0.265625 c -0.03786,0.018574 -0.07526,0.038698 -0.113281,0.058594 0.03802,-0.019906 0.07542,-0.04001 0.113281,-0.058594 z m -0.40039,0.2226562 c -0.07194,0.044304 -0.14542,0.090956 -0.216797,0.140625 0.07177,-0.049969 0.144458,-0.096082 0.216797,-0.140625 z m -0.550782,0.3984376 c -0.02595,0.021994 -0.05242,0.043564 -0.07812,0.066406 0.02569,-0.022828 0.05218,-0.044426 0.07812,-0.066406 z M 13.271484,6.15625 c -0.02864,0.096138 -0.05354,0.1952075 -0.07813,0.296875 0.02457,-0.1016589 0.04949,-0.2007432 0.07813,-0.296875 z m -0.101562,0.3984375 c -0.01083,0.048347 -0.02137,0.096896 -0.03125,0.1464844 0.0098,-0.049273 0.02049,-0.098437 0.03125,-0.1464844 z" />
      <path
         d="M 13.007813,7.789063 C 13.21785,3.4026772 16.66416,2.8459597 17.535156,2.775391 16.610864,2.83295 12.71952,3.3152782 12.609375,7.390625 Z"
         style="display:inline;opacity:1;fill:#d3d3d3;stroke:none;stroke-width:1.00778;stroke-linecap:round;stroke-linejoin:round;paint-order:stroke fill markers"
         id="path139-4" />
      <path
         id="path132"
         style="opacity:1;fill:#8b4513;stroke:none;stroke-width:1.00778;stroke-linecap:round;stroke-linejoin:round;paint-order:stroke fill markers"
         d="M 9.640625,10.359375 C 6.8281335,14.92186 6.828125,15.000021 6.828125,22 c 0,0.999998 1.25,1 1.25,1 1.2499976,0 1.25,-1 1.25,-1 0,-6.999979 6.9e-6,-7.078134 2.0625,-9.890625 z" />
    </g>
  </g>
</svg>
