<?xml version="1.0" encoding="UTF-8" standalone="no"?>
<!-- Created with Inkscape (http://www.inkscape.org/) -->

<svg
   width="24"
   height="24"
   viewBox="0 0 24 24"
   version="1.1"
   id="svg1"
   xml:space="preserve"
   xmlns="http://www.w3.org/2000/svg"
   xmlns:svg="http://www.w3.org/2000/svg"><defs
     id="defs1" /><g
     id="layer1"
     style="display:inline"><g
       id="g18"
       style="stroke:none"><path
         id="path29"
         style="display:inline;opacity:1;fill:#006400;stroke:none;stroke-linecap:round;stroke-linejoin:round;paint-order:stroke fill markers"
         d="m 11.5,19.5 v 2 C 11.5,23 13,23 13,23 v -1 c -0.5,0 -0.5,-0.5 -0.5,-0.5 v -2 z" /><path
         id="path28"
         style="display:inline;opacity:1;fill:#228b22;stroke:none;stroke-linecap:round;stroke-linejoin:round;paint-order:stroke fill markers"
         d="m 12,1 -0.5,3 -1,-1 V 4.5 L 9.5,4 V 6 L 8,5 V 7 L 7,6.5 v 2 l -1,-1 v 2 L 5.5,9 v 1.5 L 4.5,10 5,12.5 4,12 5,14.5 H 3.5 l 2,2 L 5,17 6.5,18 6,18.5 8,19 v 0.5 L 9.5,19 9,20 10.5,19.5 V 20 L 12,19.5 13.5,20 V 19.5 L 15,20 14.5,19 16,19.5 V 19 l 2,-0.5 -0.5,-0.5 1.5,-1 -0.5,-0.5 2,-2 H 19 l 1,-2.5 -1,0.5 0.5,-2.5 -1,0.5 V 9 L 18,9.5 v -2 l -1,1 v -2 L 16,7 V 5 L 14.5,6 V 4 l -1,0.5 V 3 l -1,1 z" /><path
         id="path1"
         style="display:inline;opacity:1;fill:#9acd32;stroke:none;stroke-linecap:round;stroke-linejoin:round;paint-order:stroke fill markers"
         d="M 12,5.5 11.75,6 v 5.466797 C 11.105082,11.330559 9.4031075,10.627967 9,7 c 0,0 -4.764e-4,4.719025 2.75,4.988281 v 2.740235 C 10.876268,14.624262 7.9253651,13.929015 7.5,9.25 c 0,0 0.00111,5.775197 4.25,5.994141 v 2.251953 C 5.9999897,17.372876 6,13 6,13 c 0,4.387721 4.618405,4.92444 5.75,4.990234 V 21.5 c 0,1.249999 1,1.25 1,1.25 v -0.5 c -0.499999,0.0039 -0.5,-0.75 -0.5,-0.75 V 17.990234 C 13.381595,17.92444 18,17.387721 18,13 c 0,0 10e-6,4.372876 -5.75,4.496094 V 15.244141 C 16.498889,15.025197 16.5,9.25 16.5,9.25 c -0.425365,4.679015 -3.376268,5.374262 -4.25,5.478516 V 11.988281 C 15.000476,11.719025 15,7 15,7 c -0.403108,3.627967 -2.105082,4.330559 -2.75,4.466797 V 6 Z" /></g></g></svg>
