<?xml version="1.0" encoding="UTF-8" standalone="no"?>
<!-- Created with Inkscape (http://www.inkscape.org/) -->

<svg
   width="24"
   height="24"
   viewBox="0 0 24 24"
   version="1.1"
   id="svg1"
   xmlns="http://www.w3.org/2000/svg"
   xmlns:svg="http://www.w3.org/2000/svg">
  <defs
     id="defs1" />
  <g
     id="layer1"
     style="display:inline">
    <g
       id="g1">
      <path
         style="display:inline;opacity:1;fill:#e0ffff;stroke:none;stroke-width:1;stroke-linecap:round;stroke-linejoin:round;paint-order:stroke fill markers"
         d="M 16.749399,10.912969 A 5.384616,5.4020262 0 0 1 16.353967,11.55868 5.384616,5.4020262 0 0 1 12,13.816559 5.384616,5.4020262 0 0 1 7.6565504,11.573449 5.384616,5.4020262 0 0 1 7.2674275,10.944621 7.000001,6.9681949 0 0 0 4.9999996,16.032233 7.000001,6.9681949 0 0 0 12,23 7.000001,6.9681949 0 0 0 19,16.032233 7.000001,6.9681949 0 0 0 16.749399,10.912969 Z"
         id="path114" />
      <g
         id="g159"
         transform="translate(0,-1.5)"
         style="fill:#f0fff0;stroke:none">
        <path
           id="path113"
           style="display:inline;opacity:1;fill:#f0fff0;stroke:none;stroke-linecap:round;stroke-linejoin:round;paint-order:stroke fill markers"
           d="M 12,2.5 A 5,5 0 0 0 7,7.5 5,5 0 0 0 7.6054687,9.841797 6.5,6.4496123 0 0 1 7.9667969,9.513672 5,4.9612402 0 0 0 8.4648438,10.078125 6.5,6.5 0 0 1 12,9 6.5,6.5 0 0 1 15.546875,10.066406 5,4.9612402 0 0 0 16.042969,9.5 6.5,6.4496123 0 0 1 16.410156,9.8125 5,5 0 0 0 17,7.5 5,5 0 0 0 12,2.5 Z m 4.410156,7.3125 A 6.5,6.4496123 0 0 0 16.042969,9.5 a 5,4.9612402 0 0 1 -0.496094,0.566406 6.5,6.5 0 0 1 0.496094,0.34375 5,5 0 0 0 0.367187,-0.597656 z m -0.367187,0.597656 A 6.5,6.5 0 0 0 15.546875,10.066406 5,4.9612402 0 0 1 12,11.574219 5,4.9612402 0 0 1 8.4648438,10.078125 6.5,6.5 0 0 0 7.9667969,10.423828 5,5 0 0 0 12,12.5 5,5 0 0 0 16.042969,10.410156 Z M 8.4648438,10.078125 A 5,4.9612402 0 0 0 12,11.574219 5,4.9612402 0 0 0 15.546875,10.066406 6.5,6.5 0 0 0 12,9 6.5,6.5 0 0 0 8.4648438,10.078125 Z M 7.9667969,10.423828 A 6.5,6.5 0 0 1 8.4648438,10.078125 5,4.9612402 0 0 1 7.9667969,9.513672 6.5,6.4496123 0 0 0 7.6054687,9.841797 5,5 0 0 0 7.9667969,10.423828 Z" />
        <path
           style="display:inline;fill:#ff8c00;stroke:none;stroke-width:0.999982;stroke-linecap:round;stroke-linejoin:round;paint-order:stroke fill markers"
           d="M 11.85227,8.4772732 9.9431737,9.9090929 11.85227,9.4318197 Z"
           id="path136" />
        <circle
           style="display:inline;opacity:1;fill:#000000;stroke:none;stroke-width:1;stroke-linecap:round;stroke-linejoin:round;paint-order:stroke fill markers"
           id="path85-5"
           cx="10.25"
           cy="6.5"
           r="0.75" />
        <circle
           style="display:inline;opacity:1;fill:#000000;stroke:none;stroke-width:1;stroke-linecap:round;stroke-linejoin:round;paint-order:stroke fill markers"
           id="path85-5-2-6"
           cx="13.75"
           cy="6.5"
           r="0.75" />
      </g>
      <circle
         style="display:inline;opacity:1;fill:#000000;stroke:none;stroke-width:0.999999;stroke-linecap:round;stroke-linejoin:round;paint-order:stroke fill markers"
         id="path85-5-2-6-0"
         cx="12"
         cy="20"
         r="1" />
      <circle
         style="display:inline;opacity:1;fill:#000000;stroke:none;stroke-width:0.999995;stroke-linecap:round;stroke-linejoin:round;paint-order:stroke fill markers"
         id="path85-5-2-6-0-4"
         cx="12"
         cy="17"
         r="1" />
      <path
         style="display:none;opacity:1;fill:#ff4500;stroke:none;stroke-width:1;stroke-linecap:round;stroke-linejoin:round;stroke-dasharray:none;paint-order:stroke fill markers"
         d="m 10.25,0.99999809 h 3.5 L 15,3.0000019 H 9 Z"
         id="path112" />
    </g>
  </g>
</svg>
