<?xml version="1.0" encoding="UTF-8" standalone="no"?>
<!-- Created with Inkscape (http://www.inkscape.org/) -->

<svg
   width="24"
   height="24"
   viewBox="0 0 24 24"
   version="1.1"
   id="svg1"
   xml:space="preserve"
   xmlns="http://www.w3.org/2000/svg"
   xmlns:svg="http://www.w3.org/2000/svg"><defs
     id="defs1" /><g
     id="layer1"
     style="display:inline"><g
       id="g69"
       transform="matrix(1.30895,0,0,1.1466155,-3.7074001,-1.2932311)"
       style="fill:#000000;stroke:none;stroke-width:0.816262;stroke-linecap:round;stroke-linejoin:round;stroke-dasharray:none;paint-order:stroke fill markers"><g
         id="g68"
         style="fill:#000000;stroke:none;stroke-width:0.816284;stroke-linecap:round;stroke-linejoin:round;stroke-dasharray:none;paint-order:stroke fill markers"
         transform="matrix(0.99994693,0,0,1,6.3678534e-4,0.01502832)"><path
           id="path55"
           style="display:inline;opacity:1;fill:#006400;stroke:none;stroke-width:0.816284;stroke-linecap:round;stroke-linejoin:round;stroke-dasharray:none;paint-order:stroke fill markers"
           d="m 6.0016331,4.0782013 c -0.1009527,0.00245 -0.1581659,0.00851 -0.1581659,0.00851 0,0 -2.9470132,2.1356806 -2.0919678,4.484898 0.1710096,0.4698436 1.4533357,1.0671844 1.4533357,1.0671844 0,0 0.6405321,0.2986778 0.341698,0.9395313 l -0.1298154,1.111437 c 0,0 -0.1282878,1.111187 1.1534173,1.708857 l 1.2817406,0.597419 c 0,0 -0.1253035,1.109488 1.1564016,1.707155 0,0 0.4697013,-0.170361 0.8117193,0.769326 l 1.2041495,3.313888 0.502849,1.385468 h 0.946011 l 0.502848,-1.385468 1.20415,-3.313888 c 0.342016,-0.939687 0.811719,-0.769326 0.811719,-0.769326 1.281704,-0.597667 1.156402,-1.707155 1.156402,-1.707155 l 1.28174,-0.597419 c 1.281705,-0.59767 1.153417,-1.708857 1.153417,-1.708857 l -0.129815,-1.111437 c -0.298835,-0.640853 0.341698,-0.9395313 0.341698,-0.9395313 0,0 1.282326,-0.5973408 1.453336,-1.0671844 0.855045,-2.3492174 -2.091968,-4.484898 -2.091968,-4.484898 0,0 -0.05721,-0.00606 -0.158166,-0.00851 -0.372847,-0.00905 -1.34899,0.00581 -2.297882,0.3216872 0.13088,0.3113561 0.216214,0.6360247 0.250678,0.9718697 0.02227,0.2170012 0.02199,0.366371 -0.0015,0.4935941 -0.07564,0.4112188 -0.401594,0.9421911 -0.989283,1.6169461 -0.228973,0.2628939 -0.243431,0.3254691 -0.129815,0.4969982 0.155347,0.234531 0.644498,1.3064917 0.701301,1.5369498 0.07115,0.288678 0.06682,0.7337216 -0.003,1.0552706 l 1.709982,-4.6925483 0.46853,0.1719069 -0.170103,0.4680633 -0.620727,1.7054527 1.569722,-0.9071919 0.250678,0.4340224 -2.085999,1.2016463 -0.760987,2.0901156 1.137004,-0.656991 0.250678,0.434023 -1.653281,0.953147 -0.589392,1.622052 0.705778,-0.410194 0.249186,0.435725 -1.220564,0.702946 -0.310363,0.852726 -0.471513,-0.170205 0.04327,-0.117441 1.271295,-3.496008 c -0.162668,0.296464 -0.416131,0.604133 -0.856483,1.067185 l -0.398399,0.420406 0.02686,0.268923 c 0.03304,0.326 0.0011,0.677451 -0.08953,0.97187 -0.142598,0.463125 -0.496825,0.996944 -0.769939,1.174414 0.114905,0.115018 0.258814,0.393457 0.02537,1.034845 L 12.998236,16.79761 12,19.534504 11.001764,16.79761 10.760039,16.130407 C 10.525923,15.487185 10.670345,15.208244 10.785405,15.09386 10.66407,15.01117 10.490329,14.820286 10.337766,14.593457 10.009605,14.105576 9.8665294,13.535392 9.9259379,12.949278 l 0.026858,-0.268923 -0.398399,-0.422108 C 9.1080122,11.787133 8.8556094,11.482691 8.6949297,11.18936 l 1.27428,3.499412 0.041779,0.117441 L 9.540968,14.976418 9.2306048,14.123692 8.0100415,13.420746 8.2592274,12.985021 8.9650054,13.395215 8.3756136,11.773163 6.7223324,10.820016 6.9730104,10.385993 8.1100143,11.042984 7.3490274,8.9528684 5.2630282,7.7512221 5.5137062,7.3171997 7.0834281,8.2243916 6.4627016,6.5189389 6.2925986,6.0508756 6.7611278,5.8789687 8.47111,10.571517 C 8.4014088,10.249968 8.396973,9.8049244 8.4681258,9.5162464 8.5249284,9.2857883 9.0140806,8.2138276 9.1694274,7.9792966 9.2830437,7.8077675 9.268584,7.7451923 9.039612,7.4822984 8.4519226,6.8075434 8.1259683,6.2765711 8.0503291,5.8653523 8.0269279,5.7381292 8.0265684,5.5887594 8.0488369,5.3717582 8.0833122,5.0358062 8.1689608,4.7110208 8.299515,4.3998885 7.3506223,4.0840101 6.3744793,4.0691555 6.0016331,4.0782013 Z" /><path
           d="m 15.529297,10.572266 c -0.0047,0.02173 -0.0064,0.04791 -0.01172,0.06836 -0.0523,0.200527 -0.117242,0.374856 -0.214844,0.552734 l -1.271484,3.496094 -0.04297,0.117188 0.470703,0.169922 0.310547,-0.853516 1.220703,-0.703125 -0.25,-0.435547 -0.705078,0.410156 0.589844,-1.621093 1.652344,-0.953125 -0.25,-0.433594 -1.136719,0.65625 0.759766,-2.089844 2.085937,-1.2011719 -0.25,-0.4355469 -1.570312,0.9082032 0.621093,-1.7050782 0.169922,-0.46875 -0.46875,-0.171875 z"
           style="display:inline;opacity:1;fill:#8fbc8f;stroke:none;stroke-width:0.816284;stroke-linecap:round;stroke-linejoin:round;stroke-dasharray:none;paint-order:stroke fill markers"
           id="path57" /><path
           d="M 8.6953125,11.189453 C 8.5989045,11.013455 8.5348004,10.84144 8.4824219,10.640625 c -0.00533,-0.02045 -0.00701,-0.04663 -0.011719,-0.06836 l -1.7089844,-4.6933598 -0.46875,0.171875 0.1699219,0.46875 0.6210938,1.7050782 -1.5703125,-0.9082032 -0.25,0.4355469 2.0859375,1.2011719 0.7597656,2.089844 -1.1367188,-0.65625 -0.25,0.433594 1.6523438,0.953125 0.5898438,1.621093 -0.7050782,-0.410156 -0.25,0.435547 1.2207032,0.703125 0.3105468,0.853516 L 10.011719,14.80664 9.96875,14.689452 Z"
           style="display:inline;opacity:1;fill:#8fbc8f;stroke:none;stroke-width:0.816284;stroke-linecap:round;stroke-linejoin:round;stroke-dasharray:none;paint-order:stroke fill markers"
           id="path66" /></g><g
         id="g44"
         transform="matrix(1,0,0,1.0555556,0,-1.1666667)"
         style="display:inline;fill:#000000;stroke:none;stroke-width:0.79449;stroke-linecap:round;stroke-linejoin:round;stroke-dasharray:none;paint-order:stroke fill markers"><path
           id="path4"
           style="display:inline;opacity:1;fill:#008000;stroke:none;stroke-width:0.79449;stroke-linecap:round;stroke-linejoin:round;stroke-dasharray:none;paint-order:stroke fill markers"
           d="m 12,3 c 0,0 -3.5,1.0000025 -3.5,3.5 0,0.4999995 1,1.5 1,1.5 0,0 0.4999995,0.5000005 0,1 L 9,10 c 0,0 -0.499999,1.000001 0.5,2 l 1,1 c 0,0 -0.499999,1.000001 0.5,2 0,0 0.5,10e-7 0.5,1 v 5 h 0.5 0.5 v -5 c 0,-0.999999 0.5,-1 0.5,-1 0.999999,-0.999999 0.5,-2 0.5,-2 l 1,-1 C 15.499999,11.000001 15,10 15,10 L 14.5,9 c -0.499999,-0.4999995 0,-1 0,-1 0,0 1,-1.0000005 1,-1.5 C 15.5,4.0000025 12,3 12,3 Z" /><path
           id="rect24"
           style="display:inline;opacity:1;fill:#8fbc8f;stroke:none;stroke-width:0.79449;stroke-linecap:round;stroke-linejoin:round;stroke-dasharray:none;paint-order:stroke fill markers"
           d="M 11.75,4.5 V 5 6.8144531 L 10.583984,5.4238281 10.201172,5.7460938 11.75,7.5898438 V 9.8125 L 10.90625,8.8066406 10.523438,9.1289062 11.75,10.589844 v 1.724609 l -0.523438,-0.625 -0.382812,0.322266 0.90625,1.078125 V 14 h 0.5 v -0.910156 l 0.90625,-1.078125 -0.382812,-0.322266 -0.523438,0.625 V 10.589844 L 13.476562,9.1289062 13.09375,8.8066406 12.25,9.8125 V 7.5898438 L 13.798828,5.7460938 13.416016,5.4238281 12.25,6.8144531 V 5 4.5 Z" /></g></g></g></svg>
