<?xml version="1.0" encoding="UTF-8" standalone="no"?>
<!-- Created with Inkscape (http://www.inkscape.org/) -->

<svg
   width="24"
   height="24"
   viewBox="0 0 24 24"
   version="1.1"
   id="svg1"
   xml:space="preserve"
   xmlns="http://www.w3.org/2000/svg"
   xmlns:svg="http://www.w3.org/2000/svg"><defs
     id="defs1" /><g
     id="layer1"
     style="display:inline"><g
       id="g1"
       style="stroke:none"><path
         style="opacity:1;fill:#ff8c00;stroke:none;stroke-width:1;stroke-linecap:round;stroke-linejoin:round;stroke-miterlimit:0;stroke-dasharray:none;paint-order:stroke fill markers"
         d="M 9.5,5 12,1 14.5,5 V 5 C 12,4 9.5,5 9.5,5 Z"
         id="path248" /><path
         style="display:inline;fill:#ff8c00;stroke:none;stroke-width:1;stroke-linecap:round;stroke-linejoin:round;stroke-miterlimit:0;stroke-dasharray:none;paint-order:stroke fill markers"
         d="m 9.5,19 2.5,4 2.5,-4 v 0 c -2.5,1 -5,0 -5,0 z"
         id="path248-5" /><path
         style="display:inline;fill:#ff8c00;stroke:none;stroke-width:1;stroke-linecap:round;stroke-linejoin:round;stroke-miterlimit:0;stroke-dasharray:none;paint-order:stroke fill markers"
         d="M 5,9.5 1,12 5,14.500001 v 0 C 4,12 5,9.5 5,9.5 Z"
         id="path248-5-4" /><path
         style="display:inline;fill:#ff8c00;stroke:none;stroke-width:1;stroke-linecap:round;stroke-linejoin:round;stroke-miterlimit:0;stroke-dasharray:none;paint-order:stroke fill markers"
         d="M 19,14.5 23,12 19,9.4999997 V 9.5 c 1,2.5 0,5 0,5 z"
         id="path248-5-5" /><path
         style="opacity:1;fill:#000000;stroke:none;stroke-width:1;stroke-linecap:round;stroke-linejoin:round;stroke-miterlimit:0;stroke-dasharray:none;paint-order:stroke fill markers"
         d="m 5,9 c 0,0 0,3.5 0,0"
         id="path258" /><path
         style="opacity:1;fill:#ffa500;stroke:none;stroke-width:1;stroke-linecap:round;stroke-linejoin:round;stroke-miterlimit:0;stroke-dasharray:none;paint-order:stroke fill markers"
         d="M 15,18.75 20,20 18.750027,15 v 0 C 17.75,17.75 15,18.75 15,18.75 Z"
         id="path328" /><path
         style="display:inline;fill:#ffa500;stroke:none;stroke-width:1;stroke-linecap:round;stroke-linejoin:round;stroke-miterlimit:0;stroke-dasharray:none;paint-order:stroke fill markers"
         d="m 9,5.2499734 -5,-1.249973 1.2499733,5 v 0 C 6.25,6.2500004 9,5.2499734 9,5.2499734 Z"
         id="path328-8" /><path
         style="display:inline;fill:#ffa500;stroke:none;stroke-width:1;stroke-linecap:round;stroke-linejoin:round;stroke-miterlimit:0;stroke-dasharray:none;paint-order:stroke fill markers"
         d="M 18.749973,9.000036 20,4 15,5.249973 v 0 C 17.75,6.25 18.749973,9.000036 18.749973,9.000036 Z"
         id="path328-8-6" /><path
         style="display:inline;fill:#ffa500;stroke:none;stroke-width:1;stroke-linecap:round;stroke-linejoin:round;stroke-miterlimit:0;stroke-dasharray:none;paint-order:stroke fill markers"
         d="M 5.2499733,15 4,20 9,18.75 v 0 C 6.25,17.75 5.2499733,15 5.2499733,15 Z"
         id="path328-8-4" /><circle
         style="display:inline;opacity:1;fill:#ffa500;stroke:none;stroke-width:1.00001;stroke-linecap:round;stroke-linejoin:round;stroke-miterlimit:0;stroke-dasharray:none;paint-order:stroke fill markers"
         id="path223-1"
         cx="12"
         cy="12"
         r="5.4999948" /></g></g></svg>
