<?xml version="1.0" encoding="UTF-8" standalone="no"?>
<!-- Created with Inkscape (http://www.inkscape.org/) -->

<svg
   width="24"
   height="24"
   viewBox="0 0 24 24"
   version="1.1"
   id="svg1"
   xml:space="preserve"
   xmlns="http://www.w3.org/2000/svg"
   xmlns:svg="http://www.w3.org/2000/svg"><defs
     id="defs1" /><g
     id="layer1"
     style="display:inline"><g
       id="g17"
       transform="matrix(0.99987488,0,0,0.93334099,0.00185195,0.83338549)"
       style="opacity:1;stroke:none;stroke-width:1.03515"><path
         id="path18"
         style="display:inline;opacity:1;fill:#8b008b;stroke:none;stroke-width:1.03516;stroke-linecap:round;stroke-linejoin:round;paint-order:stroke fill markers"
         d="m 20.999887,4.9999301 c 0,0 -8.55855,8.529e-4 -11.3926066,1.9063005 -0.071705,0.04821 -0.143211,0.095476 -0.2073517,0.1461567 -0.06182,0.02905 -0.1224722,0.060156 -0.1838779,0.089782 -0.060619,0.029246 -0.1217147,0.057892 -0.1819217,0.087694 C 8.5045699,7.6671678 8.0056437,7.6679678 7.5063775,8.204937 4.0115141,10.889782 0.99827295,17.321073 0.99827295,19.99978 c 1.98216245,0 6.81982475,-0.110795 6.90715865,-0.112749 7.894e-4,-1.8e-5 0.048904,-1e-6 0.048904,0 0.1838221,-0.02241 0.3661489,-0.04787 0.5496776,-0.07517 0.00858,-9.51e-4 0.016863,-0.0032 0.02543,-0.0042 2.9842658,-0.335534 5.4742918,-1.40662 7.9634788,-3.012915 4.493393,-3.758784 6.508104,-9.116135 6.508104,-11.7948429 z M 9.7461669,7.6871248 a 0.22486095,0.2290184 0 0 0 0.00978,0 0.22486095,0.2290184 0 0 1 -0.00978,0 z" /><path
         id="path12-4"
         style="display:inline;opacity:1;fill:#000000;stroke:none;stroke-width:1.03515;stroke-linecap:round;stroke-linejoin:round"
         d="m 17.103082,11.108308 a 0.34148778,0.30320176 0 0 0 -0.481098,-0.03737 0.34148778,0.30320176 0 0 0 -0.04209,0.42716 l 0.658512,0.696798 0.658512,0.696798 a 0.34148778,0.30320176 0 0 0 0.481099,0.03737 0.34148778,0.30320176 0 0 0 0.04209,-0.42716 l -0.64308,-0.680466 a 0.34148778,0.30320176 0 0 0 -0.0052,-0.0055 0.34148778,0.30320176 0 0 0 -0.0103,-0.01089 L 17.11332,11.119157 a 0.34148778,0.30320176 0 0 0 -0.0103,-0.01088 z" /><path
         id="path12-9"
         style="display:inline;opacity:1;fill:#000000;stroke:none;stroke-width:1.03515;stroke-linecap:round;stroke-linejoin:round"
         d="m 13.103084,9.1083088 a 0.34148779,0.30320178 0 0 0 -0.481099,-0.037372 0.34148779,0.30320178 0 0 0 -0.04209,0.4271603 l 0.658512,0.6967979 0.658513,0.696799 a 0.34148779,0.30320178 0 0 0 0.481097,0.03737 0.34148779,0.30320178 0 0 0 0.04209,-0.42716 L 13.77703,9.8214381 a 0.34148779,0.30320178 0 0 0 -0.0052,-0.00546 0.34148779,0.30320178 0 0 0 -0.0103,-0.010891 L 13.113373,9.1191963 a 0.34148779,0.30320178 0 0 0 -0.0103,-0.010879 z" /><path
         id="path12-9-5"
         style="display:inline;opacity:1;fill:#000000;stroke:none;stroke-width:1.03515;stroke-linecap:round;stroke-linejoin:round"
         d="m 13.103084,14.108307 a 0.34148779,0.30320178 0 0 0 -0.481099,-0.03737 0.34148779,0.30320178 0 0 0 -0.04209,0.42716 l 0.658512,0.696798 0.658513,0.696799 a 0.34148779,0.30320178 0 0 0 0.481097,0.03737 0.34148779,0.30320178 0 0 0 0.04209,-0.42716 L 13.77703,14.821437 a 0.34148779,0.30320178 0 0 0 -0.0052,-0.0055 0.34148779,0.30320178 0 0 0 -0.0103,-0.01089 l -0.648157,-0.68589 a 0.34148779,0.30320178 0 0 0 -0.0103,-0.01088 z" /><path
         id="path12-3-93"
         style="display:inline;opacity:1;fill:#000000;stroke:none;stroke-width:1.03515;stroke-linecap:round;stroke-linejoin:round"
         d="m 7.5080744,14.091908 a 0.28769039,0.2572793 0 0 0 -0.4053073,-0.03172 0.28769039,0.2572793 0 0 0 -0.035461,0.362463 l 0.9246193,0.985442 a 0.28769039,0.2572793 0 0 0 0.405308,0.03172 0.28769039,0.2572793 0 0 0 0.03546,-0.362463 L 7.5167426,14.101146 a 0.28769039,0.2572793 0 0 0 -0.00868,-0.0093 z" /><path
         id="path12-3-23"
         style="display:inline;opacity:1;fill:#000000;stroke:none;stroke-width:1.03515;stroke-linecap:round;stroke-linejoin:round"
         d="M 8.0080744,10.591906 A 0.28769039,0.2572793 0 0 0 7.602767,10.560186 0.28769039,0.2572793 0 0 0 7.567306,10.922649 l 0.9246196,0.985442 a 0.28769039,0.2572793 0 0 0 0.4053079,0.03172 0.28769039,0.2572793 0 0 0 0.03546,-0.362463 L 8.0167426,10.601144 a 0.28769039,0.2572793 0 0 0 -0.00868,-0.0093 z" /><path
         id="path12-3-9"
         style="display:inline;opacity:1;fill:#000000;stroke:none;stroke-width:1.03515;stroke-linecap:round;stroke-linejoin:round"
         d="m 16.508074,6.0919082 a 0.28769039,0.2572793 0 0 0 -0.405307,-0.03172 0.28769039,0.2572793 0 0 0 -0.03546,0.362463 l 0.92462,0.985442 a 0.28769039,0.2572793 0 0 0 0.405307,0.03172 0.28769039,0.2572793 0 0 0 0.03546,-0.362463 l -0.91595,-0.976204 a 0.28769039,0.2572793 0 0 0 -0.0087,-0.0093 z" /><path
         d="m 9.2160508,7.1421692 0.383405,0.4656134 a 0.22486095,0.2290184 0 0 0 0.316896,0.027143 0.22486095,0.2290184 0 0 0 0.027386,-0.3215447 L 9.6072804,6.9062306 c -0.071705,0.04821 -0.143211,0.095476 -0.2073517,0.1461567 -0.06182,0.02905 -0.1224722,0.060156 -0.1838779,0.089782 z"
         style="display:inline;fill:#000000;stroke:none;stroke-width:1.03515;stroke-linecap:round;stroke-linejoin:round"
         id="path22-6" /><path
         d="m 8.5196629,19.799288 c -0.00592,-0.04857 -0.021734,-0.09491 -0.056728,-0.133628 L 7.5474573,18.688498 c -0.00316,-0.0033 -0.00643,-0.0052 -0.00978,-0.0084 -0.1021975,-0.10812 -0.2834966,-0.122154 -0.4049227,-0.03132 -0.1214033,0.09081 -0.1380425,0.25215 -0.037167,0.361215 l 0.8000645,0.868589 c 7.894e-4,-1.8e-5 0.048904,-1e-6 0.048904,0 0.1838222,-0.02241 0.3661487,-0.04787 0.5496776,-0.07517 0.00858,-9.51e-4 0.016863,-0.0032 0.02543,-0.0042 z"
         style="display:inline;fill:#000000;stroke:none;stroke-width:1.03515;stroke-linecap:round;stroke-linejoin:round"
         id="path20-0" /></g></g></svg>
