<?xml version="1.0" encoding="UTF-8" standalone="no"?>
<!-- Created with Inkscape (http://www.inkscape.org/) -->

<svg
   width="24"
   height="24"
   viewBox="0 0 24 24"
   version="1.1"
   id="svg1"
   xml:space="preserve"
   xmlns="http://www.w3.org/2000/svg"
   xmlns:svg="http://www.w3.org/2000/svg"><defs
     id="defs1" /><g
     id="layer1"
     style="display:inline"><g
       id="g7"
       style="stroke:none;stroke-width:1.00084"
       transform="matrix(1,0,0,0.99832485,0,0.01255018)"><path
         d="m 17.468754,7.6328215 0.0078,0.076172 0.160157,1.4355469 c 0.279151,-0.090124 0.57001,-0.1388195 0.863293,-0.1445314 1.656854,0 3,1.343146 3,3 0,1.656854 -1.343146,3 -3,3 -0.06991,-0.0054 -0.139618,-0.01319 -0.208984,-0.02344 l 0.04492,0.404296 0.125,1.115235 C 18.47395,16.4975 18.48697,16.4988 18.5,16.5 20.985281,16.5 23,14.485281 23,12 23,9.5147186 20.985281,7.5 18.5,7.5 18.152273,7.50428 17.806213,7.548844 17.46875,7.6328125 Z"
         style="display:inline;opacity:1;fill:#48d1cc;stroke:none;stroke-width:1.00084;stroke-linecap:round;stroke-linejoin:round;paint-order:stroke fill markers"
         id="path4" /><path
         id="path3"
         style="opacity:1;fill:#48d1cc;stroke:none;stroke-width:1.00084;stroke-linecap:round;stroke-linejoin:round;paint-order:stroke fill markers"
         d="M 10.736328,6 C 9.6252312,6 9.625,7.0449219 9.625,7.0449219 L 9.1015625,11.730469 6.0078125,7.6464844 C 5.8451565,7.925875 5.6428407,8.1799787 5.4023438,8.3964844 5.2080785,8.5672208 4.9939704,8.7123808 4.7636719,8.8300781 l -0.00195,0.00195 4.0703124,5.2949219 -0.048828,0.441406 -0.2695312,2.404297 c 0,1.044995 1.1113281,1.044922 1.1113281,1.044922 h 3.8886718 3.888672 c 0,0 1.111328,7.3e-5 1.111328,-1.044922 l -0.05273,-0.476562 -0.125,-1.115235 -0.04492,-0.404297 -0.638672,-5.6992183 -0.01563,-0.1328126 -0.160157,-1.4355468 -0.0078,-0.076172 -0.06641,-0.5878906 C 17.402344,7.0449219 17.402117,6 16.291016,6 h -2.777344 z" /><path
         style="opacity:1;fill:#afeeee;stroke:none;stroke-width:1.00084;stroke-linecap:round;stroke-linejoin:round;stroke-dasharray:none;paint-order:stroke fill markers"
         d="m 15.458812,6 0.386719,2.657e-4 c 0.772467,5.305e-4 0.983468,0.051318 1.230297,0.2961292 0.172837,0.1714243 0.269276,0.3722243 0.305661,0.6364315 0.02779,0.2017842 1.109157,9.8905506 1.118511,10.0215606 0.01588,0.222434 -0.05819,0.468586 -0.19517,0.64858 -0.127353,0.167345 -0.364549,0.304972 -0.642893,0.373025 -0.103967,0.02542 -0.23485,0.02938 -1.160156,0.03514 l -1.042969,0.0065 z"
         id="path69" /><path
         id="path87"
         style="opacity:1;fill:#48d1cc;stroke:none;stroke-width:1.00084;stroke-linecap:round;stroke-linejoin:round;paint-order:stroke fill markers"
         d="M 5.4667969,3.9941406 1,8 C 1.9173488,9.0176615 3.4076044,9.284525 4.6210938,8.6484375 4.8427158,8.5351746 5.0493818,8.3947729 5.2363281,8.2304688 5.4857017,8.0059716 5.6956466,7.7412298 5.8574219,7.4472656 6.4750193,6.3303201 6.3182974,4.9448985 5.4667969,3.9941406 Z" /></g></g></svg>
