<?xml version="1.0" encoding="UTF-8" standalone="no"?>
<!-- Created with Inkscape (http://www.inkscape.org/) -->

<svg
   width="24"
   height="24"
   viewBox="0 0 24 24"
   version="1.1"
   id="svg1"
   xmlns="http://www.w3.org/2000/svg"
   xmlns:svg="http://www.w3.org/2000/svg">
  <defs
     id="defs1" />
  <g
     id="layer1"
     style="display:inline">
    <g
       id="g85"
       transform="matrix(0.71368146,0.71368146,-0.7446002,0.7446002,14.074731,-7.2032139)"
       style="display:inline;fill:#000000;stroke:none;stroke-width:0.969999;stroke-linecap:round;stroke-linejoin:round;stroke-dasharray:none;paint-order:stroke fill markers">
      <path
         id="path66-51"
         style="opacity:1;fill:#006400;stroke:none;stroke-width:0.969999;stroke-linecap:round;stroke-linejoin:round;stroke-dasharray:none;paint-order:stroke fill markers"
         d="m 11.5,2 0.222656,4 h -0.06836 L 10.947266,2.5078125 9.9824219,2.765625 11.068359,6 h -0.46875 L 9.8183594,2.2734375 8.8515625,2.5332031 10,6.0292969 V 6.5 h 0.154297 0.548828 0.533203 0.263672 0.25 0.5 0.25 0.263672 0.533203 0.548828 H 14 V 6.0292969 L 15.148438,2.5332031 14.181641,2.2734375 13.400391,6 h -0.46875 L 14.017578,2.765625 13.052734,2.5078125 12.345703,6 h -0.06836 L 12.5,2 Z" />
      <path
         id="path55"
         style="display:inline;opacity:1;fill:#fffacd;stroke:none;stroke-width:0.969999;stroke-linecap:round;stroke-linejoin:round;stroke-dasharray:none;paint-order:stroke fill markers"
         d="M 10.5,6 C 9.6846405,6 9.1891864,6.4265752 8.890625,7 8.273761,8.1847652 8.5,10 8.5,10 v 7 c 0,9.99996 3.5,12 3.5,12 0,0 3.5,-2.00004 3.5,-12 v -7 c 0,0 0.226238,-1.8152348 -0.390625,-3 C 14.810813,6.4265752 14.315359,6 13.5,6 Z" />
      <path
         id="path90-3"
         style="display:inline;opacity:1;fill:#000000;stroke:none;stroke-width:1;stroke-linecap:round;stroke-linejoin:round;stroke-dasharray:none;paint-order:stroke fill markers"
         d="M 10.25,8.5 A 0.25,0.25 0 0 0 10,8.75 0.25,0.25 0 0 0 10.25,9 h 1 A 0.25,0.25 0 0 0 11.5,8.75 0.25,0.25 0 0 0 11.25,8.5 Z"
         transform="matrix(0.99078766,0,0,0.94964624,0.11054862,2.8927747)" />
      <path
         id="path90-5"
         style="display:inline;opacity:1;fill:#000000;stroke:none;stroke-width:1;stroke-linecap:round;stroke-linejoin:round;stroke-dasharray:none;paint-order:stroke fill markers"
         d="M 11.25,14.5 A 0.25,0.25 0 0 0 11,14.75 0.25,0.25 0 0 0 11.25,15 h 1 A 0.25,0.25 0 0 0 12.5,14.75 0.25,0.25 0 0 0 12.25,14.5 Z"
         transform="matrix(0.99078766,0,0,0.94964624,0.11054862,2.8927747)" />
      <path
         id="path90-6"
         style="display:inline;opacity:1;fill:#000000;stroke:none;stroke-width:1;stroke-linecap:round;stroke-linejoin:round;stroke-dasharray:none;paint-order:stroke fill markers"
         d="M 9.5,18.5 A 0.25,0.25 0 0 0 9.25,18.75 0.25,0.25 0 0 0 9.5,19 h 1 A 0.25,0.25 0 0 0 10.75,18.75 0.25,0.25 0 0 0 10.5,18.5 Z"
         transform="matrix(0.99078766,0,0,0.94964624,0.11054862,2.8927747)" />
      <path
         id="path90-7"
         style="display:inline;opacity:1;fill:#000000;stroke:none;stroke-width:1;stroke-linecap:round;stroke-linejoin:round;stroke-dasharray:none;paint-order:stroke fill markers"
         d="M 13.25,21 A 0.25,0.25 0 0 0 13,21.25 0.25,0.25 0 0 0 13.25,21.5 h 1 A 0.25,0.25 0 0 0 14.5,21.25 0.25,0.25 0 0 0 14.25,21 Z"
         transform="matrix(0.99078766,0,0,0.94964624,0.11054862,2.8927747)" />
      <path
         id="path90-58"
         style="display:inline;opacity:1;fill:#000000;stroke:none;stroke-width:1;stroke-linecap:round;stroke-linejoin:round;stroke-dasharray:none;paint-order:stroke fill markers"
         d="M 13.25,11.5 A 0.25,0.25 0 0 0 13,11.75 0.25,0.25 0 0 0 13.25,12 h 1.5 A 0.25,0.25 0 0 0 15,11.75 0.25,0.25 0 0 0 14.75,11.5 Z"
         transform="matrix(0.99078766,0,0,0.94964624,0.11054862,2.8927747)" />
    </g>
  </g>
</svg>
